<svg width="180" height="60" viewBox="0 0 180 60" fill="none" xmlns="http://www.w3.org/2000/svg">
  <path d="M30 15H50C52.7614 15 55 17.2386 55 20V40C55 42.7614 52.7614 45 50 45H30V15ZM35 40H50V20H35V40Z" fill="#CCCCCC"/>
  <path d="M60 15H65V45H60V15Z" fill="#CCCCCC"/>
  <path d="M75 15H95C97.7614 15 100 17.2386 100 20V40C100 42.7614 97.7614 45 95 45H75V15ZM80 40H95V20H80V40Z" fill="#CCCCCC"/>
  <path d="M105 15H125V20H110V27.5H120V32.5H110V40H125V45H105V15Z" fill="#CCCCCC"/>
  <path d="M130 15H150C152.761 15 155 17.2386 155 20V40C155 42.7614 152.761 45 150 45H130V15ZM135 40H150V20H135V40Z" fill="#CCCCCC"/>
</svg>
