<svg width="180" height="60" viewBox="0 0 180 60" fill="none" xmlns="http://www.w3.org/2000/svg">
  <path d="M30 15H50C52.7614 15 55 17.2386 55 20V25C55 27.7614 52.7614 30 50 30H35V45H30V15ZM35 25H50V20H35V25Z" fill="#CCCCCC"/>
  <path d="M60 15H65V45H60V15Z" fill="#CCCCCC"/>
  <path d="M70 15H90C92.7614 15 95 17.2386 95 20V25C95 27.7614 92.7614 30 90 30H75V45H70V15ZM75 25H90V20H75V25Z" fill="#CCCCCC"/>
  <path d="M100 15H120C122.761 15 125 17.2386 125 20V40C125 42.7614 122.761 45 120 45H100V15ZM105 40H120V20H105V40Z" fill="#CCCCCC"/>
  <path d="M130 15H135V35H150V15H155V45H150V40H130V15Z" fill="#CCCCCC"/>
</svg>
