<svg width="180" height="60" viewBox="0 0 180 60" fill="none" xmlns="http://www.w3.org/2000/svg">
  <path d="M30 15H50C52.7614 15 55 17.2386 55 20V25C55 27.7614 52.7614 30 50 30H35V45H30V15ZM35 25H50V20H35V25Z" fill="#CCCCCC"/>
  <path d="M60 15H80C82.7614 15 85 17.2386 85 20V40C85 42.7614 82.7614 45 80 45H60V15ZM65 40H80V20H65V40Z" fill="#CCCCCC"/>
  <path d="M90 15H110C112.761 15 115 17.2386 115 20V25C115 27.7614 112.761 30 110 30H95V45H90V15ZM95 25H110V20H95V25Z" fill="#CCCCCC"/>
  <path d="M120 15H140V20H125V27.5H135V32.5H125V40H140V45H120V15Z" fill="#CCCCCC"/>
  <path d="M145 15H150V45H145V15Z" fill="#CCCCCC"/>
</svg>
