<svg width="180" height="60" viewBox="0 0 180 60" fill="none" xmlns="http://www.w3.org/2000/svg">
  <path d="M20.5 15H25.5L30.5 25L35.5 15H40.5L32.5 30L40.5 45H35.5L30.5 35L25.5 45H20.5L28.5 30L20.5 15Z" fill="#CCCCCC"/>
  <path d="M45 15H65C67.7614 15 70 17.2386 70 20V25C70 27.7614 67.7614 30 65 30H50V45H45V15ZM50 25H65V20H50V25Z" fill="#CCCCCC"/>
  <path d="M75 15H80V40H95V45H75V15Z" fill="#CCCCCC"/>
  <path d="M100 15H120C122.761 15 125 17.2386 125 20V25C125 27.7614 122.761 30 120 30H105V40H120V45H100V15ZM105 25H120V20H105V25Z" fill="#CCCCCC"/>
  <path d="M130 15H150C152.761 15 155 17.2386 155 20V40C155 42.7614 152.761 45 150 45H130V15ZM135 40H150V20H135V40Z" fill="#CCCCCC"/>
  <path d="M160 15H165V45H160V15Z" fill="#CCCCCC"/>
</svg>
