<svg width="180" height="60" viewBox="0 0 180 60" fill="none" xmlns="http://www.w3.org/2000/svg">
  <path d="M20 25H40V30H35V45H30V30H25V45H20V25Z" fill="#CCCCCC"/>
  <path d="M45 25H65C67.7614 25 70 27.2386 70 30V40C70 42.7614 67.7614 45 65 45H45V25ZM50 40H65V30H50V40Z" fill="#CCCCCC"/>
  <path d="M75 25H95C97.7614 25 100 27.2386 100 30V40C100 42.7614 97.7614 45 95 45H75V25ZM80 40H95V30H80V40Z" fill="#CCCCCC"/>
  <path d="M105 25H125V30H110V32.5H120V37.5H110V40H125V45H105V25Z" fill="#CCCCCC"/>
  <path d="M130 25H135V35H145V25H150V35H160V25H165V45H160V40H135V25Z" fill="#CCCCCC"/>
  <path d="M170 25H175V45H170V25Z" fill="#CCCCCC"/>
</svg>
