<svg width="160" height="160" viewBox="0 0 160 160" fill="none" xmlns="http://www.w3.org/2000/svg">
<path d="M79.7461 48.376C64.5686 48.7172 49.1211 53.3885 31.6474 63.066C28.4749 66.7322 26.8373 70.706 27.1848 74.741C28.3598 88.4535 51.8411 97.6347 79.6298 95.251C107.424 92.866 128.999 79.8185 127.822 66.1097C127.601 63.5372 126.595 61.1222 124.922 58.916C109.022 51.791 94.5023 48.0422 79.7461 48.376Z" fill="#BAE6FA"/>
<path opacity="0.35" d="M81.7114 48.3546C69.3651 48.3321 56.8988 51.1446 43.3501 57.1821C42.7813 59.3571 42.4751 61.6196 42.4751 63.9509C42.4751 80.2134 57.1601 93.3996 75.2751 93.3996C93.3876 93.3996 108.074 80.2146 108.074 63.9509C108.074 59.5684 106.996 55.4134 105.083 51.6759C97.1826 49.5234 89.4701 48.3696 81.7114 48.3546Z" fill="white"/>
<path d="M75.2751 47.2045C69.4038 46.8458 59.2876 49.9083 50.8538 52.9633C49.5364 56.065 48.8587 59.4008 48.8613 62.7708C48.8613 77.0208 61.7801 88.5733 75.4463 88.5733C89.0213 88.5733 101.034 77.0008 102.031 62.7733C102.356 58.137 100.76 53.7733 98.5476 50.0058C89.8013 48.4683 80.5226 47.5258 75.2738 47.2058" fill="white"/>
<path d="M60.2125 60.9002C60.9325 59.3052 62.0225 58.5252 63.0788 57.189C62.9625 56.8727 62.7037 55.8365 62.7037 55.4765C62.7045 55.0032 62.8209 54.5374 63.0428 54.1194C63.2648 53.7015 63.5856 53.3441 63.9773 53.0785C64.3689 52.8129 64.8196 52.6471 65.29 52.5956C65.7605 52.544 66.2363 52.6083 66.6762 52.7827C69.1323 50.9033 71.9707 49.5856 74.9914 48.9226C78.012 48.2595 81.1414 48.2673 84.1588 48.9452C84.7413 49.0765 85.3088 49.234 85.8675 49.409C79.5863 48.5377 72.5075 50.7627 67.6925 54.649C67.8387 54.9952 68.2463 55.9865 68.2463 56.3877C68.2463 57.9902 67.21 58.379 65.6087 58.379C65.2425 58.379 64.8963 58.309 64.5738 58.1877C63.4863 59.6477 62.1525 62.4302 61.5 64.1702C64.1625 66.5527 66.57 67.414 69.7038 68.5877C69.6975 68.4377 69.8112 68.3002 69.8112 68.1477C69.8112 63.3152 74.065 59.389 78.8987 59.389C80.9632 59.3898 82.9607 60.1211 84.5375 61.4536C86.1143 62.7861 87.1686 64.6336 87.5138 66.669C89.6763 65.294 91.7637 64.2402 93.3562 62.2027C92.9862 61.7502 92.5838 60.4652 92.5838 59.834C92.5838 58.3815 93.7638 57.2027 95.22 57.2027C95.425 57.2027 95.6225 57.2315 95.8162 57.2777C96.6272 55.6102 97.2336 53.8508 97.6225 52.0377C90.0662 46.4452 75.4475 47.209 75.4475 47.209C75.4475 47.209 63.8125 46.6015 55.9375 50.439C56.4625 54.2365 57.9775 57.844 60.2125 60.9002Z" fill="#353333"/>
<path d="M96.3275 58.721C96.8637 59.201 97.155 59.6248 97.3825 60.036C98.0912 61.306 96.6725 62.4698 95.22 62.4698C95.0744 62.4671 94.9293 62.4525 94.7862 62.426C93.1475 64.9848 90.2787 68.2685 87.7287 69.921C91.6387 70.5623 95.325 72.126 98.2587 74.546C100.394 70.7173 102.034 65.1923 102.034 60.4998C102.034 56.9248 100.454 54.306 98.075 52.3848C97.9487 54.2985 96.925 56.976 96.3275 58.721ZM64.5975 82.9598C65.8987 79.3635 69.1037 76.576 72.135 74.1248C71.69 73.5173 71.0262 72.0148 70.75 71.3023C67.0975 70.1896 63.8132 68.1115 61.2437 65.2873C61.2275 65.3685 61.2062 65.4498 61.1837 65.5298C60.7197 67.6225 60.6098 69.7782 60.8587 71.9073C61.7327 72.071 62.5218 72.5353 63.0893 73.2197C63.6569 73.9042 63.9671 74.7656 63.9662 75.6548C63.9662 76.761 62.995 78.3623 62.2437 79.061C63.0625 80.8273 63.6187 81.6798 64.5975 82.961" fill="#353333"/>
<path d="M64.3686 85.9806C62.8136 84.4343 61.7399 81.3531 60.7311 79.4181C60.5398 79.45 60.3463 79.4668 60.1524 79.4681C58.0449 79.4681 55.8374 77.6981 56.3374 75.6518C56.6149 74.5193 57.3949 73.7793 58.6686 73.1618C58.3774 70.8156 58.2986 67.4431 58.8436 65.0056C58.9999 64.3093 59.3311 63.9806 59.5511 63.3181C57.2261 59.9143 55.7224 55.4481 55.7224 51.0193C55.7224 50.8568 55.7324 50.6981 55.7349 50.5381C51.8061 52.5081 48.8599 55.6131 48.8599 60.4968C48.8599 71.3068 55.0849 81.9118 64.3474 86.0668C64.3549 86.0381 64.3599 86.0081 64.3686 85.9793M87.1461 71.0368C86.5463 72.7461 85.4305 74.2269 83.9529 75.2748C82.4753 76.3227 80.7088 76.886 78.8974 76.8868C76.9382 76.8883 75.0361 76.2275 73.4999 75.0118C70.4324 77.3993 67.6499 81.5956 66.2374 85.2356C66.8699 85.9168 67.3124 86.4806 68.0249 87.0856C70.1699 87.6456 73.1249 87.0856 75.4461 87.0856C84.7874 87.0856 93.0586 82.9293 97.7999 75.6443C94.6461 73.4606 90.9274 71.3831 87.1461 71.0368Z" fill="#353333"/>
<path d="M59.9728 62.1632C60.6826 60.591 61.5822 59.1117 62.6515 57.7582C62.4877 57.3192 62.4326 56.8471 62.4908 56.3822C62.5491 55.9174 62.7189 55.4735 62.9859 55.0885C63.2529 54.7035 63.6091 54.3888 64.0241 54.1713C64.439 53.9538 64.9005 53.8399 65.369 53.8394C65.7453 53.8394 66.1065 53.9144 66.4378 54.0457C69.132 51.9863 72.2819 50.6049 75.6219 50.018C78.9619 49.4311 82.3941 49.6558 85.629 50.6732C79.3465 49.8032 72.8578 51.7269 68.0415 55.6132C68.2616 56.1369 68.3232 56.7137 68.2186 57.2721C68.114 57.8304 67.8479 58.3459 67.4531 58.7544C67.0584 59.163 66.5525 59.4467 65.998 59.5705C65.4436 59.6943 64.865 59.6526 64.334 59.4507C63.2361 60.9243 62.3512 62.5453 61.7053 64.2657C63.9928 66.7294 66.7978 68.6782 69.9328 69.8507C69.9253 69.7007 69.9115 69.5544 69.9115 69.4007C69.9112 68.2519 70.1372 67.1143 70.5766 66.0529C71.0159 64.9914 71.6601 64.0269 72.4723 63.2145C73.2845 62.4021 74.2488 61.7576 75.3101 61.3179C76.3714 60.8782 77.509 60.6519 78.6578 60.6519C82.9903 60.6519 86.5765 63.8019 87.2765 67.9319C89.4477 66.5412 91.3656 64.7903 92.9478 62.7544C92.5615 62.2891 92.349 61.7041 92.3465 61.0994C92.3465 59.6444 93.5253 58.4657 94.9803 58.4657C95.1853 58.4657 95.3828 58.4957 95.5765 58.5407C96.3874 56.874 96.9939 55.1154 97.3828 53.3032C89.829 47.7069 75.2078 48.4707 75.2078 48.4707C75.2078 48.4707 63.5728 47.8632 55.6978 51.7032C56.224 55.4994 57.7378 59.1107 59.9728 62.1632Z" fill="#1185B0"/>
<path d="M96.7349 59.1516C97.2712 59.6316 97.6137 60.3229 97.6137 61.0991C97.6133 61.7976 97.3357 62.4673 96.8419 62.9611C96.348 63.455 95.6783 63.7326 94.9799 63.7329C94.8324 63.7329 94.6887 63.7116 94.5462 63.6879C92.9075 66.2498 90.7393 68.4312 88.1874 70.0854C91.9541 70.6748 95.4932 72.2652 98.4349 74.6904C100.642 70.7396 101.799 66.2885 101.794 61.7629C101.794 58.1879 100.215 55.5704 97.8349 53.6504C97.7099 55.5629 97.3349 57.4079 96.7349 59.1516ZM64.9999 83.8254C66.3135 80.1907 68.5947 76.9837 71.5974 74.5504C71.1503 73.9396 70.7848 73.2732 70.5099 72.5679C66.8583 71.4548 63.5749 69.3768 61.0062 66.5529C60.9874 66.6341 60.9649 66.7129 60.9462 66.7929C60.4798 68.8853 60.3687 71.0412 60.6174 73.1704C61.3116 73.3011 61.9559 73.6221 62.4783 74.0977C63.0007 74.5732 63.3807 75.1845 63.576 75.8634C63.7712 76.5423 63.774 77.2621 63.584 77.9425C63.394 78.6229 63.0187 79.2371 62.4999 79.7166C63.1868 81.1701 64.0248 82.5473 64.9999 83.8254Z" fill="#1185B0"/>
<path d="M64.3573 85.937C62.8067 84.3958 61.5038 82.6241 60.4948 80.6845C60.3022 80.7159 60.1075 80.7322 59.9123 80.7333C58.9004 80.7329 57.9301 80.3307 57.2147 79.6151C56.4992 78.8994 56.0973 77.929 56.0973 76.917C56.0973 75.4058 56.9786 74.1045 58.2523 73.487C57.9546 71.0792 58.0743 68.638 58.6061 66.2708C58.7598 65.5815 58.9475 64.9003 59.1686 64.2295C56.762 60.711 55.4773 56.5461 55.4836 52.2833C55.4836 52.122 55.4923 51.962 55.4961 51.8008C51.5661 53.7708 48.6211 56.877 48.6211 61.7633C48.6211 72.572 55.0761 81.8695 64.3386 86.0258L64.3573 85.937ZM86.9061 72.2995C86.3062 74.0088 85.1905 75.4896 83.7129 76.5375C82.2353 77.5854 80.4688 78.1487 78.6573 78.1495C76.6987 78.1507 74.7969 77.491 73.2598 76.277C70.1923 78.6658 67.8786 81.9208 66.4648 85.5595C67.1005 86.2441 67.7767 86.8898 68.4898 87.4933C70.6832 88.0623 72.9401 88.35 75.2061 88.3495C84.5473 88.3495 92.7561 83.527 97.4986 76.242C94.3461 74.0583 90.6886 72.647 86.9061 72.2995Z" fill="#1185B0"/>
<path d="M76.1876 61.9497L71.6089 53.7622L74.0864 62.4535L66.6589 57.0535L72.4776 64.3635L63.2564 60.9722L70.5326 66.356L61.2026 66.6435L70.7426 69.106L61.1926 71.1722L70.6189 71.8535L62.6689 76.9447L70.8564 73.9772L65.1751 81.1722L72.3514 75.3822L69.7689 85.0347L75.3089 77.1797L74.5314 86.4585L77.6776 78.046L80.3564 86.886L81.0064 78.0197L84.9814 85.5847L82.6339 76.9347L89.9089 82.5697L85.2114 75.3822L93.1939 78.4947L87.0901 72.4947L95.2751 73.1372L87.2126 70.0447L95.2964 68.1172L87.1839 67.7022L93.7839 62.656L86.2939 65.341L91.3851 58.2847L84.3526 62.9597L86.8114 54.6997L81.9814 61.5085L81.8726 52.9035L78.6926 60.5672L76.0451 52.8135L76.1876 61.9497Z" fill="white"/>
<path opacity="0.35" d="M1.16235 85.512C26.2274 60.442 46.2499 52.7045 64.4186 49.1708C66.8249 48.7033 67.2786 43.4495 67.2786 43.4495C67.2786 43.4495 67.6136 47.3195 69.2974 47.8245C70.9786 48.3283 73.1674 41.7658 73.1674 41.7658C73.1674 41.7658 71.1486 47.6545 73.1674 47.9933C75.1861 48.3283 78.8861 42.2708 78.8861 42.2708C78.8861 42.2708 77.3736 47.487 78.3836 47.8233C79.3924 48.1608 84.4386 40.252 84.4386 40.252C84.4386 40.252 81.4124 45.4683 84.2711 45.9733C87.1336 46.4795 91.3061 42.4133 91.3061 42.4133C91.3061 42.4133 88.0248 46.132 89.4873 46.647C95.7123 48.8345 100.75 40.7433 100.75 40.7433C100.75 40.7433 99.5824 44.2908 96.5549 48.1608C103.115 49.8445 107.989 39.9608 107.989 39.9608L103.114 49.8445C105.639 51.1895 115.734 39.582 115.734 39.582C115.734 39.582 110.517 48.6658 107.49 50.5145C109.171 51.8645 115.227 46.4795 115.227 46.4795C115.227 46.4795 110.35 52.5333 112.201 52.8708C114.892 55.0583 124.817 41.5983 124.817 41.5983C124.817 41.5983 120.95 49.5058 115.227 55.7308C120.009 58.122 131.885 42.777 131.885 42.777C131.885 42.777 131.547 47.6545 122.969 55.3958C129.36 54.5545 137.606 42.4408 137.606 42.4408C137.606 42.4408 134.576 51.5258 127.341 57.917C133.619 57.267 143.66 41.767 143.66 41.767C143.66 41.767 139.79 52.5333 131.885 58.7595C140.632 60.697 153.251 47.6545 153.251 47.6545C153.251 47.6545 148.287 56.9095 141.811 60.6958C149.046 63.4708 158.971 52.0308 158.971 52.0308C158.971 52.0308 149.046 67.3408 133.23 66.6683C128.042 66.447 112.347 50.9245 78.7186 52.1983C34.3061 53.882 24.8824 72.7245 1.16235 85.512Z" fill="#353333"/>
<path d="M116.761 37.6768C116.761 37.6768 106.668 49.2855 104.143 47.9393L109.016 38.0543C109.016 38.0543 104.141 47.938 97.5838 46.2568C100.609 42.3868 101.777 38.838 101.777 38.838C101.777 38.838 96.74 46.9305 90.515 44.7418C89.0525 44.2293 92.3337 40.5105 92.3337 40.5105C92.3337 40.5105 88.1587 44.5743 85.3 44.0693C82.44 43.5655 85.4675 38.3493 85.4675 38.3493C85.4675 38.3493 80.4213 46.258 79.4088 45.9205C78.4013 45.5855 79.915 40.368 79.915 40.368C79.915 40.368 76.215 46.4255 74.1962 46.0893C72.1775 45.7518 74.1962 39.8643 74.1962 39.8643C74.1962 39.8643 72.0088 46.4268 70.3263 45.9205C68.6425 45.4168 68.3075 41.5468 68.3075 41.5468C68.3075 41.5468 67.8525 46.8005 65.4475 47.2655C47.2775 50.8005 27.2563 58.5405 2.1875 83.6068C25.9087 70.8193 35.33 51.9768 79.7463 50.2955C113.375 49.0205 129.069 64.5418 134.257 64.763C150.074 65.438 160 50.1255 160 50.1255C160 50.1255 150.074 61.5655 142.837 58.7893C149.316 55.0055 154.279 45.7518 154.279 45.7518C154.279 45.7518 141.66 58.7893 132.914 56.8543C140.819 50.6305 144.688 39.8668 144.688 39.8668C144.688 39.8668 134.646 55.363 128.369 56.0168C135.604 49.623 138.631 40.5355 138.631 40.5355C138.631 40.5355 130.387 52.6505 123.994 53.493C132.576 45.753 132.914 40.8743 132.914 40.8743C132.914 40.8743 121.039 56.2193 116.257 53.828C121.974 47.603 125.845 39.6955 125.845 39.6955C125.845 39.6955 115.92 53.1555 113.228 50.968C111.376 50.6305 116.257 44.5743 116.257 44.5743C116.257 44.5743 110.201 49.958 108.518 48.6118C111.545 46.7618 116.761 37.6768 116.761 37.6768ZM132.906 65.9743C131.214 65.8593 129.721 66.4918 128.959 68.568C121.134 83.458 104.731 91.7868 85.55 94.5618C66.37 97.3368 52.2375 93.3043 40.6287 90.033C25.3625 85.728 13.25 93.3855 0 86.7393C3.065 89.1643 6.5625 91.5343 16.6562 91.5643C20.0787 91.5768 31.04 91.0268 33.0588 92.793C35.0775 94.5605 26.2462 102.888 26.2462 102.888C26.2462 102.888 41.19 90.253 42.6487 94.5605C43.5562 97.2418 38.3588 104.404 38.3588 104.404C38.3588 104.404 43.5713 97.3318 47.4463 95.823C50.1038 94.7855 52.3463 94.9105 54.2588 97.5905C55.5213 99.3555 48.2025 107.937 48.2025 107.937C48.2025 107.937 58.0425 98.348 59.81 98.853C61.5775 99.3555 59.81 107.937 59.81 107.937C59.81 107.937 63.43 99.2418 65.36 98.5993C68.01 97.7168 59.3038 118.787 59.3038 118.787C59.3038 118.787 69.9375 99.293 71.9225 98.8543C75.33 98.0968 77.6025 112.479 77.6025 112.479C77.6025 112.479 75.9425 99.9143 77.7275 99.1043C89.0275 93.9918 82.525 120.808 82.525 120.808C82.525 120.808 89.915 102.611 85.375 98.5743C97.36 106.522 95.9 120.808 95.9 120.808C95.9 120.808 99.05 114.006 90.21 97.2793C95.0075 97.0293 102.205 109.704 102.205 109.704C102.205 109.704 94.3838 95.8243 99.6838 95.573C110.214 95.073 111.292 113.994 111.292 113.994C111.292 113.994 114.446 111.344 105.992 92.7943C111.375 89.3468 124.415 109.957 124.415 109.957C124.415 109.957 112.386 89.8518 114.321 88.5055C116.254 87.1593 123.324 94.9005 123.324 94.9005C123.324 94.9005 117.94 87.498 119.368 86.7405C120.798 85.9818 135.1 101.462 135.1 101.462C135.1 101.462 122.48 86.318 124.668 84.4668C125.961 83.3705 129.711 85.398 132.574 87.2368C128.561 84.3668 122.798 79.8755 124.668 78.9043C128.538 76.8955 139.559 83.7093 139.559 83.7093C139.559 83.7093 132.913 78.2418 134.005 76.8968C135.099 75.5493 148.136 85.4768 148.136 85.4768C148.136 85.4768 136.611 76.3893 136.024 74.1193C135.434 71.8493 145.111 74.8768 145.111 74.8768C145.111 74.8768 134.426 69.9143 134.259 68.4843C134.089 67.0518 141.324 70.0818 141.324 70.0818C141.324 70.0818 136.631 66.2243 132.906 65.9743ZM132.574 87.2368C133.739 88.0702 134.917 88.8853 136.108 89.6818C136.108 89.6818 134.545 88.5043 132.574 87.2368Z" fill="#353333"/>
<path opacity="0.35" d="M0.505156 88.2538C13.7527 94.9001 25.8677 87.2451 41.1352 91.5463C52.7427 94.8176 66.8752 98.8538 86.0539 96.0751C105.235 93.3026 121.638 84.9726 129.464 70.0826C131.901 63.4363 141.829 71.5951 141.829 71.5951C141.829 71.5951 134.594 68.5701 134.761 69.9988C134.931 71.4288 145.611 76.3901 145.611 76.3901C145.611 76.3901 135.94 73.3651 136.529 75.6338C137.119 77.9063 148.64 86.9913 148.64 86.9913C148.64 86.9913 135.605 77.0638 134.51 78.4088C133.416 79.7551 140.06 85.2263 140.06 85.2263C140.06 85.2263 129.043 78.4088 125.173 80.4201C122.39 81.8638 136.613 91.1988 136.613 91.1988C136.613 91.1988 127.359 84.1326 125.173 85.9838C122.985 87.8338 135.605 102.975 135.605 102.975C135.605 102.975 121.3 87.4963 119.873 88.2538C118.44 89.0101 123.826 96.4126 123.826 96.4126C123.826 96.4126 116.759 88.6751 114.826 90.0213C112.891 91.3676 124.921 111.47 124.921 111.47C124.921 111.47 111.881 90.8613 106.496 94.3101C114.953 112.858 111.796 115.51 111.796 115.51C111.796 115.51 110.719 96.5851 100.189 97.0851C94.8889 97.3376 102.711 111.219 102.711 111.219C102.711 111.219 95.5114 98.5413 90.7164 98.7938C99.5539 115.519 96.4039 122.319 96.4039 122.319C96.4039 122.319 97.8627 108.04 85.8752 100.09C90.4177 104.128 83.0252 122.324 83.0252 122.324C83.0252 122.324 89.5302 95.5076 78.2302 100.62C76.4439 101.428 78.1052 113.995 78.1052 113.995C78.1052 113.995 75.8314 99.6076 72.4277 100.369C70.4402 100.809 59.8089 120.304 59.8089 120.304C59.8089 120.304 68.5152 99.2313 65.8652 100.116C63.9352 100.76 60.3152 109.454 60.3152 109.454C60.3152 109.454 62.0789 100.874 60.3152 100.369C58.5464 99.8626 48.7039 109.454 48.7039 109.454C48.7039 109.454 56.0252 100.874 54.7602 99.1063C52.8477 96.4288 50.6064 96.3026 47.9477 97.3388C44.0764 98.8476 38.8627 105.92 38.8627 105.92C38.8627 105.92 44.0602 98.7576 43.1527 96.0763C41.6952 91.7688 26.7502 104.406 26.7502 104.406C26.7502 104.406 35.5814 96.0763 33.5627 94.3113C31.5439 92.5438 20.5814 93.0913 17.1602 93.0826C7.06641 93.0501 3.56891 90.6813 0.503906 88.2551" fill="#353333"/>
</svg>
