<svg width="180" height="142" viewBox="0 0 180 142" fill="none" xmlns="http://www.w3.org/2000/svg">
<g clip-path="url(#clip0_2_57)">
<path d="M177.072 58.3439C172.66 55.375 161.064 54.107 152.633 56.3765C152.179 47.9836 147.849 40.9109 139.928 34.7399L136.996 32.7725L135.042 35.7224C131.2 41.5509 129.582 49.3158 130.155 56.3742C130.607 60.7229 132.121 65.6117 135.042 69.1587C124.069 75.52 113.956 74.076 69.1667 74.076H0.0142737C-0.188038 84.1842 1.43759 103.63 13.8095 119.459C15.1757 121.208 16.6752 122.899 18.3008 124.529C28.3593 134.597 43.5564 141.979 66.282 142C100.951 142.031 130.655 123.301 148.723 78.0132C154.668 78.1107 170.363 79.0789 178.044 64.2438C178.232 63.994 179.998 60.309 179.998 60.309L177.07 58.3416L177.072 58.3439ZM45.144 49.0993H25.6983V68.5354H45.144V49.0993ZM70.2663 49.0993H50.8206V68.5354H70.2663V49.0993ZM95.3886 49.0993H75.9429V68.5354H95.3886V49.0993ZM120.511 49.0993H101.065V68.5354H120.511V49.0993ZM20.0217 49.0993H0.575985V68.5354H20.0217V49.0993ZM45.144 24.5508H25.6983V43.9869H45.144V24.5508ZM70.2663 24.5508H50.8206V43.9869H70.2663V24.5508ZM95.3886 24.5508H75.9429V43.9869H95.3886V24.5508ZM95.3886 0H75.9429V19.4361H95.3886V0Z" fill="#1D63ED"/>
</g>
<defs>
<clipPath id="clip0_2_57">
<rect width="180" height="142" fill="white"/>
</clipPath>
</defs>
</svg>
