<svg width="180" height="180" viewBox="0 0 180 180" fill="none" xmlns="http://www.w3.org/2000/svg">
<path d="M85.0184 1.16915C70.2904 1.89111 56.8041 5.96299 44.4729 13.3848C37.571 17.5433 29.3695 24.3875 23.9114 30.452C7.47951 48.8188 -2.96712e-05 69.9579 1.15511 94.8512C1.8482 109.839 5.86232 123.181 13.3996 135.714C22.2942 150.471 37.2533 164.073 52.299 171.062C64.1392 176.577 75.9217 179.061 90.0722 179.061C108.699 179.061 124.322 174.498 138.733 164.853C147.598 158.933 155.222 151.655 161.864 142.847C174.311 126.271 180 107.182 178.989 85.3212C178.412 72.9901 175.841 62.5361 170.788 52.0532C164.348 38.6824 154.933 27.3331 142.573 18.1209C129.174 8.07112 112.973 2.12214 96.8586 1.28467C90.3321 0.967001 89.2636 0.938123 85.0184 1.16915ZM63.706 56.2694C68.471 57.4534 72.6295 59.937 76.2682 63.749C81.6396 69.3803 84.6141 76.571 85.7115 86.3898C85.8848 87.9492 86.0292 89.9707 86.0292 90.9526V92.6853H36.2714L36.4447 95.9197C36.9645 105.478 41.845 111.947 50.4219 114.402C53.3964 115.268 59.7497 115.326 62.6375 114.546C68.2111 113.045 72.9761 108.684 73.7847 104.352L73.9579 103.37H84.9318L84.7007 104.294C83.0547 111.918 78.232 118.07 71.099 121.679C66.103 124.192 58.2769 125.289 51.4615 124.452C44.5307 123.585 39.1593 121.102 34.5965 116.654C29.8893 112.034 27.2613 106.778 25.5864 98.6054C24.7489 94.3891 24.6623 85.1768 25.442 81.5382C27.3768 72.6147 32.1418 65.0485 38.6106 60.659C42.1338 58.262 46.9854 56.3272 50.9417 55.7207C53.8296 55.2876 60.9915 55.5763 63.706 56.2694ZM113.146 67.4165C117.651 74.0009 121.434 79.4011 121.579 79.4011C121.694 79.4011 125.593 74.0586 130.242 67.5321C134.892 61.0055 138.819 55.6052 138.992 55.5475C139.166 55.4897 142.285 55.4608 145.894 55.4897L152.479 55.5763L141.014 70.882C134.718 79.2856 129.376 86.4764 129.145 86.8229C128.741 87.4294 129.347 88.3246 141.823 105.738C149.042 115.788 155.049 124.192 155.164 124.365C155.338 124.654 153.836 124.74 148.06 124.74L140.754 124.712L131.253 110.59C126.055 102.793 121.694 96.4395 121.579 96.4395C121.463 96.4395 117.074 102.793 111.847 110.59L102.346 124.712L95.5013 124.74C91.7182 124.74 88.6282 124.683 88.6282 124.625C88.6282 124.538 94.4039 116.395 101.479 106.489C108.554 96.5839 114.272 88.3535 114.215 88.1802C114.128 87.9781 108.814 80.6718 102.374 71.8927C95.9345 63.1136 90.6497 55.8362 90.6497 55.6918C90.6497 55.5475 93.7975 55.4319 97.8116 55.4319H104.945L113.146 67.4165Z" fill="black"/>
<path d="M52.5301 65.2514C48.3139 65.8 45.195 67.3595 42.105 70.4495C40.2856 72.2111 39.6792 73.1063 38.5818 75.3588C37.34 77.929 36.3582 81.3367 36.3582 82.9828V83.7336H74.1891V82.7806C74.1891 81.0768 73.0917 77.4381 71.8788 75.0989C69.0776 69.6987 63.9949 66.1177 57.9016 65.2802C55.4758 64.9337 54.8982 64.9337 52.5301 65.2514Z" fill="black"/>
</svg>
