<svg width="159" height="151" viewBox="0 0 159 151" fill="none" xmlns="http://www.w3.org/2000/svg">
<path d="M1.31954 31.9109V13.106L13.9496 17.4549V34.9488L1.31954 31.9109Z" fill="#0B4819"/>
<path d="M11.504 109.219V39.2974L23.5763 41.8499V106.834L11.504 109.219Z" fill="#0B4819"/>
<path d="M70.5508 13.0751L39.5245 48.6409V63.7758L85.5411 11.9162L158.426 6.27679L51.2172 117.966L65.4895 118.717L143.359 39.112V114.35L134.708 122.477L156.647 123.662V144.485L87.829 139.158L122.909 105.144V88.3802L72.7561 137.992L12.7022 133.351L109.03 29.8101L93.1769 30.667L23.5762 106.834V41.8504L30.1689 34.0713L13.9494 34.9489V17.455L70.5508 13.0751Z" fill="#105C80"/>
<path d="M11.504 39.2975L18.4866 30.8964L30.1689 34.071L23.5763 41.8501L11.504 39.2975Z" fill="#0B4819"/>
<path d="M28.4153 46.5576L39.5243 48.6404V63.7752L28.4153 62.8667V46.5576Z" fill="#084010"/>
<path d="M40.8515 121.32L51.2168 117.964L65.4892 118.716L56.0715 122.197L40.8515 121.32Z" fill="#0C541E"/>
<path d="M61.479 8.0163L70.5506 13.075L39.5243 48.6409L28.4153 46.558L61.479 8.0163Z" fill="#1A5C34"/>
<path d="M28.4153 62.8672L77.5254 6.65875L85.5408 11.9162L39.5243 63.7757L28.4153 62.8672Z" fill="#0B4819"/>
<path d="M85.7193 26.9243L93.1769 30.6667L23.5763 106.834L11.504 109.219L85.7193 26.9243Z" fill="#1A5C34"/>
<path d="M2.28882e-05 137.679L102.77 25.9177L109.03 29.8098L12.7023 133.351L2.28882e-05 137.679Z" fill="#0B4819"/>
<path d="M117.744 89.4992L122.909 88.3791L72.7553 137.991L63.8361 143.08L117.744 89.4992Z" fill="#1A5C34"/>
<path d="M117.743 107.721V89.4992L122.908 88.3791V105.143L117.743 107.721Z" fill="#0B4819"/>
<path d="M79.9804 144.443L117.744 107.721L122.909 105.142L87.828 139.157L79.9804 144.443Z" fill="#0B4819"/>
<path d="M139.876 117.815L130.502 126.619L134.706 122.476L143.357 114.349L139.876 117.815Z" fill="#13802D"/>
<path d="M56.0713 122.198L139.877 35.8751L143.358 39.1116L65.489 118.717L56.0713 122.198Z" fill="#0B4819"/>
<path d="M139.876 35.8751L143.357 39.1116V114.35L139.876 117.816V35.8751Z" fill="#084010"/>
<path d="M154.313 128.025L156.645 123.661V144.484L154.313 150.735V128.025Z" fill="#084010"/>
<path d="M156.247 0L158.426 6.27693L51.2168 117.966L40.8515 121.321L156.247 0Z" fill="#1A5C34"/>
<path d="M61.4794 8.01657L28.4156 46.5583V62.8675L77.5257 6.65898L156.247 6.10352e-05L40.852 121.321L56.072 122.199L139.878 35.8756V117.816L130.504 126.62L154.316 128.027V150.737L79.9815 144.444L117.745 107.722V89.5006L63.837 143.082L2.28882e-05 137.68L102.77 25.9182L85.7194 26.9248L11.5042 109.219V39.298L18.4867 30.8969L1.31958 31.9112V13.1063L61.4794 8.01657Z" fill="url(#paint0_radial_20_71)"/>
<defs>
<radialGradient id="paint0_radial_20_71" cx="0" cy="0" r="1" gradientUnits="userSpaceOnUse" gradientTransform="translate(31.1425 28.4166) scale(76.3844 76.3453)">
<stop stop-color="white"/>
<stop offset="1" stop-color="#007808"/>
</radialGradient>
</defs>
</svg>
