<svg width="94" height="140" viewBox="0 0 94 140" fill="none" xmlns="http://www.w3.org/2000/svg">
<path d="M0 116.667C0 103.78 10.4468 93.3334 23.3333 93.3334H46.6667V116.667C46.6667 129.553 36.2199 140 23.3333 140C10.4468 140 0 129.553 0 116.667Z" fill="#24CB71"/>
<path d="M46.6667 0V46.6667H70C82.8865 46.6667 93.3333 36.2199 93.3333 23.3333C93.3333 10.4468 82.8865 0 70 0H46.6667Z" fill="#FF7237"/>
<path d="M69.8057 93.3334C82.6923 93.3334 93.139 82.8867 93.139 70.0001C93.139 57.1134 82.6923 46.6667 69.8057 46.6667C56.919 46.6667 46.4723 57.1134 46.4723 70.0001C46.4723 82.8867 56.919 93.3334 69.8057 93.3334Z" fill="#00B6FF"/>
<path d="M0 23.3333C0 36.2199 10.4468 46.6667 23.3333 46.6667H46.6667V0H23.3333C10.4468 0 0 10.4468 0 23.3333Z" fill="#FF3737"/>
<path d="M0 70.0001C0 82.8866 10.4468 93.3334 23.3333 93.3334H46.6667V46.6667H23.3333C10.4468 46.6667 0 57.1136 0 70.0001Z" fill="#874FFF"/>
</svg>
