<svg width="143" height="160" viewBox="0 0 143 160" fill="none" xmlns="http://www.w3.org/2000/svg">
<path fill-rule="evenodd" clip-rule="evenodd" d="M71.2001 10.3488L131.52 45.1744V114.826L71.2001 149.651L10.8801 114.826V45.1744L71.2001 10.3488ZM17.6481 49.0816V100.243L61.9553 23.5008L17.6481 49.0816ZM71.2001 21.024L20.1249 109.488H122.275L71.2001 21.024ZM115.507 116.256H26.8929L71.2001 141.837L115.507 116.256ZM124.752 100.243L80.4449 23.5008L124.752 49.0816V100.243Z" fill="#E10098"/>
<path d="M14.256 61.376C22.1294 61.376 28.512 54.9934 28.512 47.12C28.512 39.2466 22.1294 32.864 14.256 32.864C6.38263 32.864 0 39.2466 0 47.12C0 54.9934 6.38263 61.376 14.256 61.376Z" fill="#E10098"/>
<path d="M14.256 127.128C22.1294 127.128 28.512 120.745 28.512 112.872C28.512 104.999 22.1294 98.616 14.256 98.616C6.38263 98.616 0 104.999 0 112.872C0 120.745 6.38263 127.128 14.256 127.128Z" fill="#E10098"/>
<path d="M71.2001 160C79.0735 160 85.4561 153.617 85.4561 145.744C85.4561 137.871 79.0735 131.488 71.2001 131.488C63.3268 131.488 56.9441 137.871 56.9441 145.744C56.9441 153.617 63.3268 160 71.2001 160Z" fill="#E10098"/>
<path d="M128.136 127.128C136.009 127.128 142.392 120.745 142.392 112.872C142.392 104.999 136.009 98.616 128.136 98.616C120.263 98.616 113.88 104.999 113.88 112.872C113.88 120.745 120.263 127.128 128.136 127.128Z" fill="#E10098"/>
<path d="M128.136 61.384C136.009 61.384 142.392 55.0014 142.392 47.128C142.392 39.2547 136.009 32.872 128.136 32.872C120.263 32.872 113.88 39.2547 113.88 47.128C113.88 55.0014 120.263 61.384 128.136 61.384Z" fill="#E10098"/>
<path d="M71.2001 28.512C79.0735 28.512 85.4561 22.1294 85.4561 14.256C85.4561 6.38263 79.0735 0 71.2001 0C63.3268 0 56.9441 6.38263 56.9441 14.256C56.9441 22.1294 63.3268 28.512 71.2001 28.512Z" fill="#E10098"/>
</svg>
