<svg width="100" height="100" viewBox="0 0 100 100" fill="none" xmlns="http://www.w3.org/2000/svg">
<path d="M50.2088 44.1969C50.313 44.0962 50.3739 43.9589 50.3787 43.8138H50.3807C50.451 41.0538 49.8122 38.898 48.4836 37.4056C47.0807 35.8303 44.9319 35.0214 42.0965 35.001C39.2662 35.001 36.8281 35.8853 35.0452 37.5583C33.3589 39.1415 32.4074 41.3332 32.3645 43.7293C32.2922 47.8608 34.6264 50.4883 37.2295 53.0314C39.2448 55.1046 39.6146 56.1297 39.5943 57.2993C39.5698 58.6524 38.9259 59.4287 37.8266 59.4287C37.3732 59.4287 37.0095 59.288 36.7486 59.0109C36.3411 58.583 36.1608 57.8097 36.227 56.7747C36.238 56.7055 36.2341 56.6346 36.2155 56.5672C36.2075 56.5384 36.197 56.5105 36.184 56.4837C36.1665 56.4478 36.1447 56.4143 36.119 56.3834C36.0675 56.3185 36.0022 56.2658 35.9278 56.2292C35.8535 56.1924 35.7719 56.1727 35.689 56.1715H29.739C29.5939 56.171 29.4543 56.2272 29.3499 56.3282C29.2455 56.4289 29.1845 56.5665 29.1797 56.7115C29.0401 59.5805 29.7084 61.8035 31.1664 63.3185C32.603 64.8102 34.7629 65.5662 37.5902 65.5662C43.1266 65.5662 46.7648 62.1072 46.8596 56.7563C46.9177 53.447 45.7103 50.9437 42.6976 48.1175C40.4093 45.8985 39.6055 44.6066 39.6309 43.1853C39.6533 41.9107 40.4195 41.1812 41.6075 41.1812C42.7955 41.1812 43.3762 41.9983 43.3762 43.6763C43.3762 44.0482 43.691 44.3539 44.068 44.3539H49.8203C49.9653 44.3541 50.1046 44.2976 50.2088 44.1969Z" fill="#0AE448"/>
<path d="M32.2587 49.2895V49.2763H32.2556C32.2607 48.9992 32.0681 48.7455 31.7951 48.7099C31.7716 48.7047 31.7462 48.7047 31.7217 48.7047H21.1972V48.7169C20.9251 48.7495 20.704 48.9341 20.65 49.1776L19.5537 53.9394C19.5392 54.0036 19.5396 54.0703 19.555 54.1342C19.5703 54.1981 19.6002 54.2578 19.6424 54.3083C19.6973 54.373 19.7657 54.425 19.8428 54.4606C19.9198 54.4961 20.0038 54.5143 20.0886 54.514H21.6923C21.785 54.514 21.9062 54.5275 21.95 54.5844C21.9918 54.6394 21.9888 54.7628 21.945 54.9217C21.6332 56.0659 20.8915 57.3201 19.9704 58.0454C19.0484 58.7697 17.5262 59.2038 16.4595 58.5498C15.2563 57.8111 15.0525 56.0291 15.0026 54.7618C14.8976 52.0393 15.4305 49.3059 16.4769 46.7894C17.2257 44.988 18.6378 41.738 21.0321 41.738C22.3892 41.738 23.0718 42.8586 23.1227 45.1612C23.124 45.2127 23.1345 45.2631 23.1534 45.3104C23.1745 45.3631 23.2061 45.4116 23.2468 45.4527C23.324 45.5303 23.428 45.5756 23.5374 45.5788H29.7829C29.9289 45.5788 30.069 45.5216 30.1735 45.4196C30.278 45.3176 30.3385 45.1788 30.3422 45.0328C30.3382 41.7032 29.5781 39.1603 28.0804 37.4711C26.6642 35.8745 24.6286 35.0748 22.0357 35.0971C13.512 35.0971 9.0852 43.7093 8.14782 52.2443C7.62827 56.7903 8.48611 60.5639 10.5625 62.8687C12.1336 64.6129 13.9858 65.4962 16.7326 65.4962C19.7901 65.4962 22.0784 64.8176 23.9348 63.3627C26.1171 61.6541 27.7697 58.8085 28.9902 54.668C29.0038 54.6222 29.0317 54.5822 29.0699 54.5536C29.1081 54.5247 29.1545 54.5093 29.2022 54.5091H30.5256C30.8353 54.5091 31.1043 54.3123 31.1634 54.0434L32.2587 49.2895Z" fill="#0AE448"/>
<path fill-rule="evenodd" clip-rule="evenodd" d="M68.2085 64.559L68.2462 36.0997C68.2473 36.0285 68.2341 35.9576 68.2075 35.8915C68.1955 35.8619 68.1809 35.8333 68.1639 35.8064C68.1431 35.7733 68.1187 35.7427 68.091 35.7149C68.0678 35.6912 68.0424 35.6701 68.0154 35.6514C67.9841 35.6298 67.9505 35.6114 67.9151 35.597C67.8492 35.5699 67.7785 35.5562 67.7072 35.5567H58.8047C58.5051 35.5567 58.3737 35.8144 58.2881 35.9845L45.3977 64.3846V64.3899L45.3927 64.3971C45.25 64.7463 45.521 65.1204 45.899 65.1204H52.1221C52.4583 65.1204 52.6814 65.0184 52.7904 64.8065L54.0263 61.8365C54.1781 61.4403 54.2066 61.4035 54.6386 61.4035H60.5845C60.9982 61.4035 61.0063 61.4117 61.0002 61.8161L60.8668 64.5774C60.8663 64.6078 60.8684 64.6381 60.8731 64.6679C60.8793 64.708 60.8902 64.7473 60.9054 64.7851C60.932 64.8513 60.9715 64.9112 61.0216 64.962C61.0717 65.0125 61.1314 65.0524 61.1972 65.0795C61.263 65.1069 61.3335 65.1207 61.4047 65.1204H67.692C67.7698 65.1214 67.8469 65.1051 67.9178 65.073C67.9887 65.041 68.0518 64.994 68.1025 64.9348C68.1463 64.8836 68.1785 64.8234 68.1968 64.7585C68.215 64.6936 68.2191 64.6257 68.2085 64.559ZM57.1949 55.0574C57.1479 55.0574 57.101 55.0559 57.0543 55.0522C57.0325 55.0504 57.0113 55.0437 56.9923 55.033C56.9733 55.0221 56.9569 55.0071 56.9443 54.9892C56.9383 54.9808 56.9331 54.9716 56.929 54.9621C56.9245 54.9517 56.9213 54.9407 56.9192 54.9295C56.9171 54.9173 56.9164 54.9052 56.9172 54.893C56.9178 54.8833 56.9194 54.8738 56.9218 54.8646C56.9288 54.8412 56.9375 54.8129 56.9486 54.7798C56.9567 54.7554 56.966 54.7285 56.9768 54.6997L61.4353 43.6676C61.4753 43.5589 61.5216 43.4524 61.5738 43.3487C61.6462 43.2 61.7338 43.1898 61.7613 43.2999C61.7847 43.3915 61.2499 54.6273 61.2499 54.6273C61.2081 55.0482 61.1887 55.0653 60.774 55.1002L57.1989 55.0594H57.1908L57.1949 55.0574Z" fill="#0AE448"/>
<path fill-rule="evenodd" clip-rule="evenodd" d="M76.1644 35.5567H80.8908L80.8959 35.5537C87.8668 35.5537 91.3472 38.7132 91.2371 44.9483C91.1087 52.2546 86.6564 57.6239 79.9525 58.8616C78.9999 59.037 78.0309 59.1051 77.063 59.1002L73.8262 59.0857C73.7731 59.0855 73.722 59.1061 73.6839 59.1429C73.6458 59.18 73.6237 59.2305 73.6224 59.2835C73.6217 59.3193 73.6312 59.3546 73.6498 59.3852C73.6684 59.4158 73.6953 59.4407 73.7273 59.4566L74.1216 59.6616L75.1405 60.1934L76.1644 60.7262C76.2702 60.7814 76.3762 60.8366 76.4823 60.8911C76.7085 61.0095 76.7961 61.205 76.7452 61.4577L76.0279 64.6946C75.9688 64.9644 75.7518 65.1204 75.4339 65.1204H69.5267C69.442 65.1204 69.3583 65.102 69.2814 65.0664C69.2045 65.0309 69.1363 64.9791 69.0815 64.9147C69.0392 64.864 69.0091 64.8043 68.9936 64.7401C68.978 64.6759 68.9774 64.6092 68.9918 64.5448L75.5694 35.9867C75.6346 35.6892 75.9148 35.5567 76.1644 35.5567ZM79.1557 52.5511H79.2821C82.3844 52.4257 84.0757 48.7598 84.1379 45.2031C84.1735 43.1482 83.4236 41.9448 82.0788 41.904H77.7579C77.7055 41.904 77.6552 41.9244 77.6177 41.961C77.5802 41.9975 77.5585 42.0473 77.5572 42.0998C77.5563 42.1356 77.5654 42.1712 77.5836 42.202C77.6018 42.2331 77.6283 42.2582 77.6601 42.2749C77.6601 42.2749 80.3926 43.7156 80.5801 43.8196C80.7268 43.8999 80.7288 44.0365 80.6809 44.274C80.6804 44.2792 80.2622 46.1174 79.8217 48.0556C79.3301 50.2186 78.8107 52.5066 78.8134 52.5103C78.8215 52.5205 78.8715 52.5511 79.1557 52.5511Z" fill="#0AE448"/>
</svg>
