<svg width="160" height="160" viewBox="0 0 160 160" fill="none" xmlns="http://www.w3.org/2000/svg">
<g clip-path="url(#clip0_1_52)">
<path d="M0 15C0 6.71573 6.71573 0 15 0H145C153.284 0 160 6.71573 160 15V145C160 153.284 153.284 160 145 160H15C6.71573 160 0 153.284 0 145V15Z" fill="#F7DF1E"/>
<path d="M42.07 133.707L54.3138 126.297C56.6763 130.486 58.825 134.029 63.9794 134.029C68.92 134.029 72.0357 132.097 72.0357 124.579V73.4556H87.0713V124.792C87.0713 140.365 77.9425 147.454 64.6238 147.454C52.5956 147.454 45.6138 141.224 42.0694 133.706M95.2381 132.096L107.481 125.008C110.704 130.271 114.893 134.137 122.303 134.137C128.533 134.137 132.506 131.022 132.506 126.726C132.506 121.571 128.424 119.745 121.551 116.739L117.793 115.126C106.944 110.509 99.7488 104.709 99.7488 92.4656C99.7488 81.1881 108.341 72.5956 121.766 72.5956C131.325 72.5956 138.199 75.9256 143.139 84.625L131.431 92.1437C128.853 87.5256 126.062 85.7 121.766 85.7C117.362 85.7 114.569 88.4925 114.569 92.1437C114.569 96.6544 117.362 98.4812 123.806 101.274L127.564 102.884C140.346 108.362 147.541 113.947 147.541 126.512C147.541 140.046 136.909 147.456 122.624 147.456C108.663 147.456 99.6407 140.797 95.2375 132.097" fill="black"/>
</g>
<defs>
<clipPath id="clip0_1_52">
<rect width="160" height="160" fill="white"/>
</clipPath>
</defs>
</svg>
