<svg width="68" height="145" viewBox="0 0 68 145" fill="none" xmlns="http://www.w3.org/2000/svg">
<path d="M46.6496 16.1612C40.5374 8.94086 35.2741 1.60767 34.1989 0.084614C34.0856 -0.0282047 33.9158 -0.0282047 33.8026 0.084614C32.7273 1.60767 27.4641 8.94086 21.3519 16.1612C-31.111 82.7803 29.6147 127.739 29.6147 127.739L30.124 128.077C30.5767 135.015 31.7086 145 31.7086 145H33.9724H36.2362C36.2362 145 37.3681 135.072 37.8209 128.077L38.3302 127.682C38.3868 127.739 99.1127 82.7803 46.6496 16.1612ZM33.9724 126.723C33.9724 126.723 31.2559 124.411 30.5202 123.226V123.113L33.8026 50.5709C33.8026 50.3452 34.1423 50.3452 34.1423 50.5709L37.4247 123.113V123.226C36.689 124.411 33.9724 126.723 33.9724 126.723Z" fill="#001E2B"/>
</svg>
