<svg width="180" height="182" viewBox="0 0 180 182" fill="none" xmlns="http://www.w3.org/2000/svg">
<rect width="180" height="181.259" rx="36" fill="#FEF42C"/>
<g clip-path="url(#clip0_20_16)">
<path d="M72.5884 65.4546L44.4839 115.758H18.8811L40.8234 76.4812C44.2287 70.3889 52.717 65.4546 59.787 65.4546H72.5884ZM135.374 78.0294C135.374 71.0854 141.105 65.4546 148.175 65.4546C155.245 65.4546 160.977 71.0854 160.977 78.0294C160.977 84.9777 155.245 90.6084 148.175 90.6084C141.105 90.6084 135.374 84.9777 135.374 78.0294ZM77.3868 65.4546H102.99L74.8851 115.758H49.2823L77.3868 65.4546ZM107.629 65.4546H133.232L111.285 104.736C107.884 110.824 99.396 115.758 92.326 115.758H79.5246L107.629 65.4546Z" fill="black"/>
</g>
<defs>
<clipPath id="clip0_20_16">
<rect width="142.238" height="50.3497" fill="white" transform="translate(18.8811 65.4546)"/>
</clipPath>
</defs>
</svg>
