<svg width="270" height="180" viewBox="0 0 270 180" fill="none" xmlns="http://www.w3.org/2000/svg">
<path d="M31.1538 134.065H37.9963V107.045L48.5887 130.6C49.8387 133.451 51.5496 134.46 54.9048 134.46C58.2605 134.46 59.9053 133.451 61.1558 130.6L71.7483 107.045V134.064H78.5907V107.089C78.5907 104.457 77.5379 103.185 75.3672 102.528C70.1695 100.905 66.6822 102.308 65.1029 105.818L54.7076 129.064L44.6416 105.818C43.1284 102.308 39.5756 100.905 34.3779 102.528C32.2067 103.185 31.1538 104.458 31.1538 107.089V134.065ZM84.2802 112.072H91.1205V126.958C91.0565 127.767 91.38 129.665 95.1283 129.724C97.0406 129.754 109.887 129.724 110.007 129.724V112H116.864C116.895 112 116.857 136.171 116.857 136.273C116.895 142.235 109.461 143.529 106.034 143.63H84.4283V139.026C84.4666 139.026 106.018 139.031 106.072 139.025C110.476 138.56 109.956 136.371 109.956 135.635V133.84H95.4118C88.645 133.778 84.3366 130.824 84.2833 127.428C84.278 127.113 84.4293 112.221 84.2796 112.072L84.2802 112.072Z" fill="#00618A"/>
<path d="M122.137 134.065H141.809C144.111 134.065 146.348 133.583 148.125 132.749C151.086 131.39 152.533 129.548 152.533 127.135V122.135C152.533 120.16 150.888 118.318 147.664 117.09C145.953 116.432 143.848 116.081 141.809 116.081H133.518C130.756 116.081 129.44 115.248 129.111 113.406C129.045 113.186 129.045 113.011 129.045 112.792V109.678C129.045 109.502 129.045 109.326 129.111 109.107C129.44 107.704 130.164 107.308 132.598 107.089C132.795 107.089 133.058 107.045 133.256 107.045H152.796V102.484H133.585C130.821 102.484 129.374 102.66 128.058 103.054C123.979 104.326 122.202 106.344 122.202 109.853V113.844C122.202 116.915 125.69 119.547 131.545 120.16C132.203 120.204 132.861 120.248 133.518 120.248H140.624C140.888 120.248 141.151 120.248 141.348 120.292C143.52 120.468 144.44 120.862 145.099 121.652C145.493 122.046 145.625 122.441 145.625 122.88V126.871C145.625 127.354 145.296 127.968 144.638 128.494C144.046 129.021 143.059 129.372 141.743 129.46C141.48 129.46 141.283 129.503 141.02 129.503H122.136V134.064L122.137 134.065ZM195.218 126.126C195.218 130.819 198.705 133.451 205.745 133.978C206.403 134.021 207.061 134.065 207.719 134.065H225.549V129.503H207.587C203.574 129.503 202.061 128.494 202.061 126.082V102.484H195.218V126.126ZM156.9 126.365V110.102C156.9 105.97 159.801 103.465 165.537 102.673C166.148 102.586 166.765 102.542 167.383 102.542H180.371C181.03 102.542 181.624 102.586 182.283 102.673C188.019 103.465 190.92 105.97 190.92 110.102V126.365C190.92 129.716 189.688 131.511 186.848 132.68L193.589 138.763H185.644L180.191 133.841L174.701 134.189H167.383C166.13 134.189 164.812 134.013 163.361 133.617C159.01 132.431 156.9 130.145 156.9 126.365V126.365ZM164.285 125.97C164.285 126.19 164.351 126.409 164.417 126.673C164.813 128.563 166.593 129.618 169.296 129.618H175.512L169.802 124.463H177.746L182.727 128.959C183.645 128.47 184.249 127.722 184.46 126.761C184.525 126.542 184.525 126.321 184.525 126.102V110.498C184.525 110.323 184.525 110.102 184.46 109.882C184.064 108.124 182.284 107.114 179.647 107.114H169.296C166.263 107.114 164.286 108.433 164.286 110.498V125.97H164.285Z" fill="#E48E00"/>
<path d="M231.568 94.9166C227.363 94.8026 224.15 95.1936 221.403 96.352C220.623 96.6813 219.378 96.6898 219.251 97.6681C219.68 98.1178 219.746 98.7891 220.087 99.3422C220.743 100.404 221.85 101.826 222.838 102.572C223.918 103.387 225.03 104.258 226.187 104.964C228.246 106.219 230.544 106.935 232.526 108.193C233.694 108.934 234.854 109.867 235.994 110.704C236.557 111.117 236.936 111.761 237.668 112.02V111.9C237.283 111.411 237.184 110.737 236.831 110.226L235.276 108.671C233.756 106.653 231.826 104.881 229.775 103.409C228.139 102.234 224.478 100.649 223.795 98.7444L223.675 98.6245C224.835 98.4939 226.193 98.0741 227.264 97.7879C229.062 97.3052 230.668 97.4299 232.526 96.9503C233.362 96.7111 234.2 96.4713 235.038 96.2326V95.7542C234.099 94.7908 233.43 93.5163 232.405 92.6446C229.728 90.3642 226.805 88.0858 223.795 86.1863C222.126 85.1324 220.063 84.4478 218.294 83.5547C217.699 83.2548 216.653 83.0987 216.26 82.5978C215.331 81.4133 214.825 79.9113 214.107 78.5313C212.606 75.6408 211.132 72.4833 209.802 69.4414C208.895 67.3677 208.302 65.3227 207.171 63.4616C201.741 54.5332 195.895 49.1448 186.84 43.8475C184.913 42.7211 182.593 42.2757 180.142 41.6949L176.195 41.4551C175.392 41.1194 174.557 40.1375 173.803 39.6611C170.803 37.7664 163.109 33.644 160.887 39.0633C159.484 42.484 162.984 45.8221 164.236 47.5554C165.114 48.7713 166.239 50.1342 166.867 51.502C167.28 52.4008 167.351 53.3018 167.704 54.2529C168.574 56.5957 169.329 59.1442 170.455 61.309C171.023 62.4045 171.65 63.5586 172.368 64.5379C172.809 65.1395 173.564 65.4043 173.683 66.3324C172.945 67.3661 172.903 68.9699 172.488 70.279C170.619 76.1731 171.324 83.4983 174.043 87.8605C174.877 89.1994 176.842 92.0713 179.544 90.97C181.908 90.0072 181.379 87.0239 182.056 84.3923C182.209 83.7956 182.114 83.3565 182.414 82.9569V83.0768L184.567 87.382C186.16 89.9475 188.988 92.6292 191.384 94.4386C192.627 95.3769 193.605 96.9994 195.211 97.5482V97.4283H195.092C194.78 96.9434 194.293 96.742 193.896 96.352C192.96 95.4345 191.919 94.2937 191.145 93.2425C188.966 90.2837 187.04 87.0458 185.285 83.6746C184.447 82.0655 183.719 80.2891 183.012 78.6512C182.74 78.0198 182.743 77.065 182.176 76.7373C181.402 77.9378 180.262 78.9086 179.664 80.3259C178.707 82.5914 178.583 85.3541 178.229 88.219C178.019 88.2942 178.112 88.2425 177.989 88.3384C176.324 87.9366 175.738 86.222 175.119 84.7509C173.553 81.0308 173.263 75.0403 174.64 70.758C174.997 69.6498 176.608 66.1598 175.956 65.1368C175.645 64.1154 174.617 63.5245 174.043 62.7444C173.331 61.7795 172.621 60.5093 172.129 59.3951C170.847 56.4945 170.249 53.2384 168.9 50.3063C168.255 48.9045 167.164 47.4861 166.269 46.2398C165.277 44.8598 164.167 43.8421 163.398 42.1728C163.125 41.5798 162.754 40.6303 163.159 40.0202C163.288 39.6089 163.47 39.4368 163.877 39.3025C164.571 38.7681 166.503 39.4805 167.225 39.781C169.143 40.5776 170.744 41.3363 172.368 42.4121C173.148 42.9294 173.937 43.9295 174.88 44.2066H175.956C177.64 44.5934 179.526 44.3265 181.099 44.8044C183.879 45.6495 186.37 46.9634 188.633 48.3924C195.527 52.745 201.163 58.9412 205.019 66.3324C205.639 67.5222 205.907 68.6582 206.453 69.9204C207.556 72.4662 208.944 75.0856 210.041 77.5749C211.135 80.0579 212.202 82.5648 213.749 84.6316C214.562 85.718 217.703 86.3009 219.13 86.9035C220.131 87.3266 221.771 87.7672 222.719 88.3384C224.529 89.4307 226.283 90.7308 227.981 91.9269C228.83 92.5247 231.438 93.836 231.568 94.9166Z" fill="#00618A"/>
<path fill-rule="evenodd" clip-rule="evenodd" d="M178.109 49.3494C177.232 49.3334 176.612 49.4453 175.956 49.5881V49.7079H176.076C176.494 50.5674 177.232 51.1205 177.75 51.8605C178.148 52.6979 178.547 53.5352 178.946 54.3722L179.065 54.2529C179.806 53.7307 180.145 52.8958 180.142 51.6218C179.845 51.3096 179.801 50.9174 179.544 50.545C179.202 50.0484 178.54 49.7671 178.109 49.3494Z" fill="#00618A"/>
<path fill-rule="evenodd" clip-rule="evenodd" d="M228.76 129.373C228.76 132.386 231.141 134.416 233.804 134.416C236.466 134.416 238.846 132.386 238.846 129.373C238.846 126.361 236.466 124.331 233.804 124.331C231.141 124.331 228.761 126.361 228.761 129.373H228.76ZM237.717 129.373C237.717 131.659 235.969 133.367 233.804 133.367C231.612 133.367 229.891 131.659 229.891 129.373C229.891 127.088 231.612 125.379 233.804 125.379C235.969 125.379 237.717 127.088 237.717 129.373ZM235.162 132.251H236.291L234.638 129.724C235.525 129.629 236.197 129.199 236.197 128.15C236.197 126.98 235.458 126.496 234.033 126.496H231.787V132.251H232.755V129.763H233.655L235.162 132.251ZM232.755 128.957V127.303H233.871C234.449 127.303 235.148 127.411 235.148 128.083C235.148 128.889 234.516 128.957 233.79 128.957H232.755Z" fill="#E48E00"/>
</svg>
