<svg width="160" height="160" viewBox="0 0 160 160" fill="none" xmlns="http://www.w3.org/2000/svg">
<g clip-path="url(#clip0_1_30)">
<mask id="mask0_1_30" style="mask-type:alpha" maskUnits="userSpaceOnUse" x="0" y="0" width="160" height="160">
<path d="M80 160C124.183 160 160 124.183 160 80C160 35.8172 124.183 0 80 0C35.8172 0 0 35.8172 0 80C0 124.183 35.8172 160 80 160Z" fill="black"/>
</mask>
<g mask="url(#mask0_1_30)">
<path d="M80 160C124.183 160 160 124.183 160 80C160 35.8172 124.183 0 80 0C35.8172 0 0 35.8172 0 80C0 124.183 35.8172 160 80 160Z" fill="black"/>
<path d="M132.896 140.018L61.4596 48H48V111.973H58.7676V61.6743L124.444 146.529C127.407 144.546 130.23 142.369 132.896 140.018Z" fill="url(#paint0_linear_1_30)"/>
<path d="M112.889 48H102.222V112H112.889V48Z" fill="url(#paint1_linear_1_30)"/>
</g>
</g>
<defs>
<linearGradient id="paint0_linear_1_30" x1="96.8889" y1="103.556" x2="128.444" y2="142.667" gradientUnits="userSpaceOnUse">
<stop stop-color="white"/>
<stop offset="1" stop-color="white" stop-opacity="0"/>
</linearGradient>
<linearGradient id="paint1_linear_1_30" x1="107.556" y1="48" x2="107.377" y2="95" gradientUnits="userSpaceOnUse">
<stop stop-color="white"/>
<stop offset="1" stop-color="white" stop-opacity="0"/>
</linearGradient>
<clipPath id="clip0_1_30">
<rect width="160" height="160" fill="white"/>
</clipPath>
</defs>
</svg>
