<svg width="163" height="180" viewBox="0 0 163 180" fill="none" xmlns="http://www.w3.org/2000/svg">
<g clip-path="url(#clip0_1_42)">
<path d="M74.1641 2.2851C78.5959 -0.258516 84.3684 -0.270005 88.7965 2.2851C111.074 14.9068 133.358 27.5087 155.631 40.1381C159.82 42.5043 162.623 47.1792 162.58 52.0194V127.956C162.611 132.997 159.532 137.784 155.112 140.096C132.908 152.648 110.716 165.216 88.5157 177.768C83.9922 180.361 78.1038 180.161 73.7216 177.356C67.0649 173.486 60.3968 169.636 53.7394 165.77C52.379 164.957 50.8455 164.31 49.8849 162.987C50.7341 161.84 52.2524 161.697 53.486 161.196C56.2647 160.31 58.8168 158.888 61.3694 157.508C62.0149 157.065 62.803 157.234 63.4218 157.631C69.1141 160.903 74.7561 164.271 80.4675 167.512C81.6859 168.218 82.9196 167.281 83.961 166.699C105.75 154.351 127.565 142.05 149.35 129.698C150.158 129.309 150.604 128.45 150.538 127.563C150.554 102.513 150.542 77.4587 150.546 52.4087C150.638 51.4028 150.058 50.4779 149.151 50.0662C127.024 37.5715 104.908 25.0577 82.7853 12.5598C82.402 12.2956 81.9479 12.1538 81.4828 12.1531C81.0176 12.1524 80.5632 12.2929 80.1791 12.556C58.0561 25.0577 35.9445 37.583 13.8214 50.077C12.9175 50.4894 12.3108 51.3989 12.4184 52.4087C12.4222 77.4587 12.4184 102.513 12.4184 127.567C12.38 128 12.4748 128.434 12.6899 128.811C12.905 129.188 13.2301 129.489 13.6215 129.675C19.5252 133.032 25.4364 136.365 31.3439 139.711C34.6719 141.507 38.7581 142.574 42.4248 141.198C45.6606 140.034 47.9287 136.723 47.867 133.279C47.8975 108.375 47.8517 83.467 47.8899 58.567C47.809 57.4615 48.8549 56.5481 49.9269 56.6521C52.7635 56.633 55.6039 56.6138 58.4405 56.6598C59.6246 56.633 60.4394 57.8234 60.293 58.9372C60.2815 83.9987 60.3235 109.061 60.2739 134.122C60.2815 140.801 57.5449 148.069 51.3834 151.337C43.7929 155.28 34.4109 154.444 26.912 150.663C20.4202 147.414 14.225 143.58 7.84839 140.099C3.41716 137.8 0.353301 132.994 0.384493 127.957V52.0194C0.338023 47.0789 3.25165 42.3191 7.57148 39.9874C29.7716 27.4251 51.9678 14.8532 74.1641 2.2851Z" fill="#8CC84B"/>
<path d="M93.5314 54.8872C103.214 54.2623 113.579 54.517 122.292 59.2998C129.038 62.9649 132.778 70.657 132.897 78.1717C132.708 79.1853 131.652 79.7445 130.687 79.6749C127.877 79.6711 125.068 79.7132 122.258 79.6557C121.067 79.7017 120.374 78.6 120.224 77.5436C119.417 73.9481 117.462 70.387 114.087 68.6528C108.905 66.0517 102.898 66.1826 97.2483 66.2368C93.1239 66.4564 88.6889 66.8145 85.1947 69.2464C82.5122 71.0885 81.6973 74.8072 82.6548 77.8021C83.5574 79.9525 86.0331 80.6464 88.0587 81.286C99.7272 84.346 112.092 84.0415 123.538 88.0685C128.277 89.7102 132.912 92.9017 134.534 97.8766C136.656 104.544 135.726 112.514 130.995 117.867C127.158 122.272 121.57 124.669 115.997 125.971C108.583 127.629 100.888 127.671 93.3588 126.935C86.2788 126.126 78.911 124.261 73.4454 119.424C68.7716 115.354 66.4888 109.014 66.7154 102.895C66.7696 101.861 67.7957 101.141 68.7831 101.226C71.612 101.203 74.441 101.195 77.2699 101.23C78.3999 101.149 79.2376 102.128 79.2955 103.196C79.8175 106.621 81.1015 110.217 84.0807 112.248C89.8303 115.967 97.0446 115.713 103.628 115.817C109.082 115.574 115.205 115.501 119.656 111.886C122.004 109.824 122.7 106.375 122.065 103.407C121.378 100.902 118.764 99.7347 116.52 98.9713C105.001 95.3176 92.4976 96.6434 81.09 92.5117C76.4589 90.8706 71.9806 87.7679 70.2014 82.9972C67.7187 76.2453 68.8563 67.8938 74.0832 62.7217C79.1797 57.577 86.5366 55.5964 93.5314 54.8872Z" fill="#8CC84B"/>
</g>
<defs>
<clipPath id="clip0_1_42">
<rect width="163" height="180" fill="white"/>
</clipPath>
</defs>
</svg>
