<svg width="178" height="184" viewBox="0 0 178 184" fill="none" xmlns="http://www.w3.org/2000/svg">
<path d="M132.4 133.123C133.548 123.555 133.204 122.151 140.331 123.701L142.14 123.86C147.621 124.109 154.79 122.979 159.001 121.022C168.067 116.815 173.443 109.791 164.504 111.637C144.112 115.844 142.71 108.939 142.71 108.939C164.243 76.9897 173.244 36.4333 165.474 26.506C144.282 -0.572321 107.6 12.2328 106.986 12.5652L106.791 12.6017C102.761 11.7653 98.2523 11.2658 93.1868 11.1839C83.9588 11.0323 76.9566 13.6031 71.6451 17.6319C71.6451 17.6319 6.20537 -9.3284 9.24975 51.5372C9.89722 64.4851 27.8091 149.511 49.1725 123.83C56.9807 114.439 64.5265 106.498 64.5265 106.498C68.2735 108.988 72.7596 110.257 77.4646 109.801L77.8283 109.491C77.7144 110.657 77.7646 111.798 77.9738 113.148C72.4713 119.297 74.0882 120.377 63.0852 122.641C51.9533 124.936 58.4933 129.02 62.7621 130.088C67.9386 131.382 79.9138 133.216 88.0074 121.888L87.6851 123.181C89.844 124.908 89.6981 135.595 90.0042 143.23C90.3107 150.866 90.8219 157.992 92.3784 162.193C93.9348 166.393 95.7714 177.214 110.232 174.115C122.317 171.525 131.558 167.797 132.4 133.123Z" fill="black" stroke="black" stroke-width="17.0468"/>
<path d="M164.506 111.636C144.112 115.843 142.71 108.938 142.71 108.938C164.242 76.9869 173.244 36.4297 165.476 26.5035C144.284 -0.573134 107.6 12.2324 106.988 12.5648L106.791 12.6001C102.761 11.7637 98.2522 11.2654 93.1843 11.1827C83.9563 11.0315 76.9566 13.6019 71.645 17.6299C71.645 17.6299 6.20411 -9.32921 9.24768 51.536C9.89515 64.4846 27.8067 149.511 49.1708 123.829C56.9794 114.438 64.5241 106.498 64.5241 106.498C68.2714 108.987 72.7575 110.257 77.4605 109.801L77.8258 109.491C77.7123 110.657 77.7642 111.798 77.9722 113.148C72.4685 119.296 74.0857 120.376 63.0836 122.641C51.9508 124.936 58.4908 129.02 62.7608 130.087C67.9374 131.382 79.9134 133.216 88.0054 121.888L87.6826 123.18C89.8391 124.908 91.3534 134.415 91.0996 143.034C90.8458 151.653 90.6763 157.57 92.3755 162.192C94.0747 166.814 95.7681 177.213 110.231 174.114C122.317 171.524 128.58 164.813 129.451 153.618C130.069 145.659 131.468 146.835 131.557 139.72L132.679 136.351C133.973 125.562 132.884 122.081 140.33 123.7L142.14 123.859C147.62 124.108 154.792 122.978 159.002 121.021C168.067 116.814 173.443 109.791 164.505 111.636H164.506Z" fill="#336791"/>
<path d="M88.8811 117.821C88.3196 137.896 89.0222 158.111 90.9865 163.024C92.952 167.937 97.1584 177.493 111.623 174.394C123.707 171.804 128.104 166.79 130.012 155.724C131.417 147.582 134.126 124.97 134.474 120.338M71.5441 17.1814C71.5441 17.1814 6.05858 -9.58344 9.10295 51.2822C9.75042 64.2304 27.6631 149.26 49.0269 123.577C56.8339 114.184 63.8944 106.818 63.8944 106.818M106.916 12.2964C104.649 13.0071 143.343 -1.84864 165.333 26.2501C173.101 36.1767 164.099 76.7343 142.567 108.686" stroke="white" stroke-width="5.68226" stroke-linecap="round" stroke-linejoin="round"/>
<path d="M142.567 108.686C142.567 108.686 143.97 115.593 164.364 111.383C173.3 109.538 167.922 116.562 158.86 120.771C151.422 124.223 134.747 125.107 134.475 120.338C133.774 108.031 143.251 111.77 142.567 108.686ZM142.567 108.686C141.948 105.909 137.71 103.183 134.907 96.386C132.459 90.4533 101.339 44.9575 143.537 51.7144C145.083 51.3945 132.531 11.576 93.0396 10.9285C53.5568 10.2811 54.8521 59.4837 54.8521 59.4837" stroke="white" stroke-width="5.68226" stroke-linecap="round" stroke-linejoin="bevel"/>
<path d="M77.8283 112.895C72.3237 119.043 73.9426 120.123 62.9396 122.389C51.8069 124.683 58.3477 128.767 62.6165 129.834C67.793 131.13 79.7691 132.963 87.861 121.633C90.3252 118.183 87.8464 112.679 84.4615 111.275C82.826 110.598 80.6391 109.749 77.8283 112.895Z" stroke="white" stroke-width="5.68226" stroke-linecap="round" stroke-linejoin="round"/>
<path d="M77.4678 112.788C76.9132 109.172 78.6557 104.87 80.5232 99.837C83.3295 92.2854 89.8047 84.7327 84.6249 60.7782C80.764 42.9275 54.8679 57.0632 54.8517 59.4837C54.8359 61.9033 56.023 71.752 54.4191 83.2208C52.3263 98.1865 63.9419 110.844 77.3174 109.549" stroke="white" stroke-width="5.68226" stroke-linecap="round" stroke-linejoin="round"/>
<path d="M71.3061 59.1208C71.1894 59.9479 72.8196 62.1535 74.9453 62.4482C77.0673 62.7442 78.8836 61.0203 78.9988 60.1944C79.1139 59.3677 77.4857 58.4571 75.3592 58.1612C73.236 57.8652 71.4188 58.2962 71.3065 59.1208H71.3061Z" fill="white" stroke="white" stroke-width="1.89409"/>
<path d="M135.941 57.4354C136.057 58.2625 134.428 60.4681 132.302 60.7628C130.179 61.0588 128.362 59.3349 128.246 58.509C128.134 57.6823 129.762 56.7717 131.886 56.4758C134.01 56.1798 135.826 56.6108 135.941 57.4358V57.4354Z" fill="white" stroke="white" stroke-width="0.947272"/>
<path d="M143.537 51.7144C143.887 58.1989 142.14 62.6156 141.92 69.5185C141.594 79.5521 146.704 91.0363 139.005 102.535" stroke="white" stroke-width="5.68226" stroke-linecap="round" stroke-linejoin="round"/>
</svg>
