<svg width="160" height="160" viewBox="0 0 160 160" fill="none" xmlns="http://www.w3.org/2000/svg">
<g clip-path="url(#clip0_128_940)">
<path d="M158.841 115.438L130.641 76.3317L84.9941 13.025C82.6741 9.825 77.3208 9.825 75.0141 13.025L29.3808 76.3183L1.1608 115.438C0.597386 116.224 0.226491 117.131 0.0780427 118.086C-0.0704058 119.041 0.00774927 120.017 0.306202 120.937C0.604654 121.856 1.11505 122.693 1.79619 123.378C2.47734 124.064 3.31016 124.58 4.22747 124.885L78.0808 149.058H78.0941C79.333 149.464 80.6687 149.464 81.9075 149.058H81.9208L155.767 124.885C157.634 124.272 159.101 122.818 159.701 120.938C160.003 120.019 160.081 119.04 159.931 118.084C159.78 117.128 159.411 116.221 158.841 115.438ZM80.0075 27.1317L109.607 68.185L81.9275 59.1183C81.7141 59.0517 81.4875 59.065 81.2741 59.0117C81.0632 58.9632 80.8494 58.9275 80.6341 58.905C80.4208 58.8783 80.2208 58.7983 80.0075 58.7983C79.7941 58.7983 79.5941 58.8783 79.3808 58.905C79.1654 58.9265 78.9516 58.9621 78.7408 59.0117C78.5275 59.0517 78.3008 59.0517 78.1008 59.1183L50.6008 68.1383L50.4275 68.1917L80.0275 27.1383H80.0141L80.0075 27.1317ZM38.1875 85.1317L70.4141 74.5783L73.8541 73.4583V134.725L16.0675 115.812L38.1808 85.145L38.1875 85.1317ZM86.1675 134.712V73.465L121.834 85.145L143.941 115.798L86.1675 134.712Z" fill="#E520E9"/>
</g>
<defs>
<clipPath id="clip0_128_940">
<rect width="160" height="160" fill="white"/>
</clipPath>
</defs>
</svg>
