<svg width="160" height="160" viewBox="0 0 160 160" fill="none" xmlns="http://www.w3.org/2000/svg">
<path fill-rule="evenodd" clip-rule="evenodd" d="M64.2297 6C52.6165 6 43.2024 15.1153 43.2024 26.3596V40.4548H79.5956V44.3701H27.0277C15.4147 44.3701 6.00049 53.4855 6.00049 64.7297V95.2693C6.00049 106.514 15.4147 115.629 27.0277 115.629H39.1587V98.4016C39.1587 87.1574 48.5729 78.0417 60.1861 78.0417H99.0052C108.832 78.0417 116.797 70.3288 116.797 60.8146V26.3596C116.797 15.1153 107.384 6 95.7704 6H64.2297ZM59.3774 31.058C63.3972 31.058 66.6558 27.9027 66.6558 24.0105C66.6558 20.1182 63.3972 16.9629 59.3774 16.9629C55.3571 16.9629 52.0985 20.1182 52.0985 24.0105C52.0985 27.9027 55.3571 31.058 59.3774 31.058Z" fill="url(#paint0_linear_127_940)"/>
<path fill-rule="evenodd" clip-rule="evenodd" d="M95.7694 154C107.383 154 116.797 144.885 116.797 133.641V119.545H80.4034V115.63H132.972C144.585 115.63 153.999 106.514 153.999 95.2702V64.7306C153.999 53.4864 144.585 44.3711 132.972 44.3711H120.84V61.5983C120.84 72.843 111.426 81.9582 99.8135 81.9582H60.9938C51.1672 81.9582 43.2017 89.6711 43.2017 99.1853V133.641C43.2017 144.885 52.616 154 64.2287 154H95.7694ZM100.622 128.942C96.6019 128.942 93.3433 132.097 93.3433 135.989C93.3433 139.882 96.6019 143.037 100.622 143.037C104.642 143.037 107.901 139.882 107.901 135.989C107.901 132.097 104.642 128.942 100.622 128.942Z" fill="url(#paint1_linear_127_940)"/>
<defs>
<linearGradient id="paint0_linear_127_940" x1="61.3992" y1="6" x2="61.3992" y2="115.629" gradientUnits="userSpaceOnUse">
<stop stop-color="#327EBD"/>
<stop offset="1" stop-color="#1565A7"/>
</linearGradient>
<linearGradient id="paint1_linear_127_940" x1="98.6004" y1="44.3711" x2="98.6004" y2="154" gradientUnits="userSpaceOnUse">
<stop stop-color="#FFDA4B"/>
<stop offset="1" stop-color="#F9C600"/>
</linearGradient>
</defs>
</svg>
