<svg width="207" height="124" viewBox="0 0 207 124" fill="none" xmlns="http://www.w3.org/2000/svg">
<g clip-path="url(#clip0_62_24)">
<path d="M165.38 61.8937C165.38 67.592 163.069 72.7498 159.327 76.48C155.585 80.2142 150.417 82.5249 144.707 82.5249C138.998 82.5249 133.83 84.8315 130.092 88.5657C126.35 92.3 124.035 97.4578 124.035 103.156C124.035 108.854 121.724 114.012 117.982 117.742C114.24 121.477 109.072 123.787 103.362 123.787C97.6527 123.787 92.4846 121.477 88.7469 117.742C85.0051 114.012 82.6899 108.854 82.6899 103.156C82.6899 97.4578 85.0051 92.3 88.7469 88.5657C92.4846 84.8315 97.6527 82.5249 103.362 82.5249C109.072 82.5249 114.24 80.2142 117.982 76.48C121.724 72.7498 124.035 67.592 124.035 61.8937C124.035 50.497 114.782 41.2625 103.362 41.2625C97.6527 41.2625 92.4846 38.9518 88.7469 35.2175C85.0051 31.4874 82.6899 26.3296 82.6899 20.6312C82.6899 14.9329 85.0051 9.77508 88.7469 6.04082C92.4846 2.30657 97.6527 0 103.362 0C114.782 0 124.035 9.23454 124.035 20.6312C124.035 26.3296 126.35 31.4874 130.092 35.2175C133.83 38.9518 138.998 41.2625 144.707 41.2625C156.127 41.2625 165.38 50.497 165.38 61.8937Z" fill="#C12730"/>
<path d="M82.69 61.8939C82.69 50.4993 73.4344 41.2627 62.0175 41.2627C50.6005 41.2627 41.345 50.4993 41.345 61.8939C41.345 73.2882 50.6005 82.5252 62.0175 82.5252C73.4344 82.5252 82.69 73.2882 82.69 61.8939Z" fill="white"/>
<path d="M41.345 103.156C41.345 91.7618 32.0896 82.5249 20.6725 82.5249C9.25537 82.5249 0 91.7618 0 103.156C0 114.551 9.25537 123.787 20.6725 123.787C32.0896 123.787 41.345 114.551 41.345 103.156Z" fill="white"/>
<path d="M206.725 103.156C206.725 91.7618 197.469 82.5249 186.052 82.5249C174.635 82.5249 165.38 91.7618 165.38 103.156C165.38 114.551 174.635 123.787 186.052 123.787C197.469 123.787 206.725 114.551 206.725 103.156Z" fill="white"/>
</g>
<defs>
<clipPath id="clip0_62_24">
<rect width="207" height="123.787" fill="white"/>
</clipPath>
</defs>
</svg>
