<svg width="160" height="144" viewBox="0 0 160 144" fill="none" xmlns="http://www.w3.org/2000/svg">
<path d="M80.2812 56.5202C71.8174 56.5202 64.9561 63.3815 64.9561 71.8453C64.9561 80.3092 71.8174 87.1705 80.2812 87.1705C88.745 87.1705 95.6063 80.3092 95.6063 71.8453C95.6063 63.3815 88.745 56.5202 80.2812 56.5202Z" fill="#58C4DC"/>
<path d="M159.989 71.9844C159.989 59.9529 148.847 49.4008 131.108 42.4563C131.345 40.8924 131.559 39.3454 131.712 37.8267C133.461 20.5389 129.296 8.06147 119.989 2.68658C109.575 -3.32631 94.8667 1.03798 79.9944 12.9395C65.122 1.03798 50.4134 -3.32631 40 2.68658C30.6928 8.06147 26.5274 20.5389 28.2771 37.8267C28.4295 39.3454 28.6384 40.898 28.8811 42.4676C27.4023 43.0322 25.9517 43.6306 24.5576 44.2573C8.72019 51.3768 0 61.2346 0 71.9844C0 84.0158 11.1415 94.568 28.8811 101.512C28.6384 103.076 28.4295 104.623 28.2771 106.142C26.5274 123.43 30.6928 135.907 40 141.282C43.1999 143.097 46.8258 144.024 50.5037 143.97C59.3199 143.97 69.6148 139.329 79.9944 131.029C90.3683 139.329 100.669 143.97 109.496 143.97C113.174 144.024 116.8 143.096 120 141.282C129.307 135.907 133.473 123.43 131.723 106.142C131.57 104.623 131.356 103.076 131.119 101.512C148.858 94.5793 160 84.0101 160 71.9844M109.429 7.62109C111.793 7.56404 114.131 8.1369 116.201 9.28099C122.664 13.0129 125.565 23.136 124.154 37.0532C124.058 38.0017 123.945 38.9615 123.81 39.9269C116.434 37.7049 108.88 36.1201 101.233 35.19C96.5975 29.0261 91.4425 23.2707 85.8247 17.987C94.6465 11.1667 102.926 7.62109 109.423 7.62109M106.392 87.2283C103.537 92.1844 100.429 96.9898 97.0792 101.625C91.4011 102.209 85.6967 102.499 79.9887 102.495C74.2826 102.499 68.5801 102.209 62.9039 101.625C59.563 96.9896 56.464 92.1842 53.6193 87.2283C50.7649 82.2859 48.1707 77.1977 45.8473 71.9844C48.1707 66.771 50.7649 61.6828 53.6193 56.7404C56.4595 51.8044 59.549 47.0161 62.8757 42.3942C68.5623 41.7963 74.2764 41.4985 79.9944 41.5021C85.7004 41.4987 91.4029 41.7889 97.0792 42.3716C100.417 47.0007 103.518 51.7964 106.369 56.7404C109.222 61.684 111.816 66.7721 114.141 71.9844C111.816 77.1966 109.222 82.2847 106.369 87.2283M118.025 81.5824C119.816 86.4685 121.286 91.4663 122.427 96.544C117.478 98.0875 112.432 99.304 107.323 100.186C109.265 97.2573 111.146 94.2104 112.967 91.0449C114.768 87.9171 116.455 84.761 118.047 81.605M69.2761 109.772C72.7868 109.987 76.3708 110.111 80 110.111C83.6292 110.111 87.2358 109.987 90.7521 109.772C87.4181 113.767 83.8264 117.539 80 121.064C76.1818 117.539 72.5995 113.767 69.2761 109.772ZM52.6711 100.174C47.5606 99.2966 42.5132 98.0839 37.5617 96.544C38.6977 91.4743 40.1626 86.4841 41.9472 81.605C43.5163 84.761 45.1982 87.9171 47.027 91.0449C48.8557 94.1727 50.7464 97.2554 52.6711 100.186M41.9472 62.3581C40.169 57.4971 38.7078 52.5258 37.573 47.4755C42.5122 45.9339 47.5461 44.7137 52.6429 43.8226C50.7126 46.7415 48.8218 49.7677 46.9987 52.9238C45.1757 56.0799 43.5107 59.1964 41.919 62.3581M90.7182 34.1907C87.2076 33.9762 83.6235 33.8519 79.9661 33.8519C76.3388 33.8519 72.7642 33.9649 69.2423 34.1907C72.5656 30.1957 76.148 26.4237 79.9661 22.8989C83.794 26.4227 87.3858 30.1948 90.7182 34.1907ZM112.956 52.9238C111.127 49.7546 109.237 46.7058 107.284 43.7774C112.406 44.6591 117.465 45.8775 122.427 47.4247C121.288 52.4937 119.824 57.4838 118.041 62.3637C116.472 59.2077 114.785 56.0516 112.962 52.9294M35.8572 37.0588C34.4292 23.1473 37.3473 13.0186 43.8041 9.28664C45.8755 8.14432 48.2125 7.57158 50.5771 7.62674C57.0735 7.62674 65.3535 11.1724 74.1752 17.9926C68.5537 23.2801 63.395 29.0392 58.7555 35.207C51.1105 36.1414 43.5581 37.7204 36.1789 39.9269C36.0491 38.9615 35.9306 38.0073 35.8403 37.0588M27.6845 51.2074C28.5537 50.8311 29.4398 50.4547 30.3429 50.0783C32.1183 57.5707 34.5256 64.8989 37.5392 71.9844C34.5199 79.0837 32.1106 86.4273 30.3372 93.9356C15.956 88.0357 7.61958 79.8604 7.61958 71.9844C7.61958 64.5205 14.957 56.9493 27.6845 51.2074ZM43.8041 134.682C37.3473 130.95 34.4292 120.821 35.8572 106.91C35.9475 105.961 36.066 105.007 36.1959 104.036C43.5722 106.258 51.1254 107.842 58.7724 108.773C63.4096 114.939 68.5645 120.698 74.1809 125.987C61.8823 135.489 50.6448 138.623 43.8211 134.682M124.148 106.91C125.559 120.827 122.658 130.95 116.196 134.682C109.378 138.634 98.1346 135.489 85.8417 125.987C91.4563 120.698 96.6093 114.939 101.245 108.773C108.892 107.843 116.445 106.258 123.821 104.036C123.957 105.007 124.069 105.961 124.165 106.91M129.685 93.9243C127.907 86.4204 125.496 79.0808 122.478 71.9844C125.494 64.8841 127.904 57.5407 129.68 50.0331C144.033 55.9331 152.392 64.1083 152.392 71.9844C152.392 79.8604 144.055 88.0357 129.674 93.9356" fill="#58C4DC"/>
</svg>
