<svg width="180" height="180" viewBox="0 0 180 180" fill="none" xmlns="http://www.w3.org/2000/svg">
<g clip-path="url(#clip0_120_955)">
<path d="M172.948 131.445C163.342 136.452 113.58 156.912 102.986 162.435C92.392 167.959 86.5069 167.905 78.1376 163.904C69.769 159.904 16.8138 138.513 7.27453 133.953C2.50734 131.675 0 129.751 0 127.935V109.741C0 109.741 68.9414 94.7323 80.0712 90.7393C91.2002 86.7462 95.0618 86.6021 104.533 90.0713C114.005 93.5419 170.639 103.76 180 107.188L179.996 125.125C179.997 126.923 177.837 128.896 172.948 131.445Z" fill="#912626"/>
<path d="M172.944 113.358C163.339 118.363 113.579 138.824 102.985 144.346C92.3914 149.87 86.5063 149.816 78.1377 145.815C69.7684 141.817 16.8153 120.423 7.27673 115.866C-2.26187 111.307 -2.46155 108.169 6.90829 104.5C16.2781 100.829 68.9408 80.1681 80.072 76.1751C91.201 72.1834 95.0619 72.0379 104.533 75.5085C114.005 78.9777 163.468 98.6659 172.828 102.094C182.19 105.526 182.55 108.351 172.944 113.358Z" fill="#C6302B"/>
<path d="M172.948 102.005C163.342 107.012 113.58 127.472 102.986 132.997C92.392 138.519 86.5069 138.465 78.1376 134.464C69.7683 130.466 16.8138 109.073 7.27453 104.513C2.50734 102.235 0 100.314 0 98.4968V80.3006C0 80.3006 68.9414 65.2931 80.0712 61.3001C91.2002 57.307 95.0618 57.1622 104.533 60.6321C114.006 64.102 170.64 74.3177 180 77.7469L179.996 95.6857C179.997 97.4836 177.837 99.4566 172.948 102.005Z" fill="#912626"/>
<path d="M172.944 83.9189C163.339 88.9252 113.579 109.385 102.985 114.909C92.3914 120.431 86.5063 120.377 78.1377 116.377C69.7684 112.379 16.8153 90.9853 7.27673 86.4277C-2.26187 81.8693 -2.46155 78.7305 6.90829 75.0602C16.2781 71.392 68.9415 50.7293 80.072 46.737C91.201 42.7446 95.0619 42.5998 104.533 46.0697C114.005 49.5389 163.468 69.2257 172.828 72.6548C182.19 76.0861 182.55 78.9127 172.944 83.9189Z" fill="#C6302B"/>
<path d="M172.948 71.4749C163.342 76.4812 113.58 96.9421 102.986 102.467C92.392 107.99 86.5069 107.935 78.1376 103.935C69.7683 99.936 16.8138 78.5427 7.27453 73.9851C2.50734 71.7049 0 69.7832 0 67.9677V49.7709C0 49.7709 68.9414 34.7641 80.0712 30.7717C91.2002 26.778 95.0618 26.6345 104.533 30.1038C114.006 33.5737 170.64 43.7894 180 47.2185L179.996 65.1567C179.997 66.9531 177.837 68.9261 172.948 71.4749Z" fill="#912626"/>
<path d="M172.944 53.3888C163.339 58.395 113.579 78.856 102.985 84.3783C92.3913 89.9006 86.5061 89.8465 78.1376 85.8478C69.769 81.8471 16.8152 60.4552 7.27732 55.8968C-2.26197 51.3392 -2.46096 48.1997 6.90818 44.5301C16.278 40.8612 68.9414 20.2013 80.0719 16.2075C91.2009 12.2145 95.0618 12.071 104.533 15.541C114.005 19.0109 163.468 38.6977 172.827 42.1268C182.19 45.5553 182.55 48.3825 172.944 53.3888Z" fill="#C6302B"/>
<path d="M111.996 35.6887L96.52 37.2953L93.0557 45.6316L87.4602 36.3292L69.5903 34.7233L82.9244 29.9146L78.9236 22.5332L91.4076 27.4157L103.176 23.5626L99.9955 31.195L111.996 35.6887ZM92.1318 76.131L63.2495 64.1519L104.635 57.7991L92.1318 76.131ZM52.0888 40.3223C64.3056 40.3223 74.2091 44.1613 74.2091 48.8962C74.2091 53.6324 64.3056 57.4708 52.0888 57.4708C39.872 57.4708 29.9685 53.6317 29.9685 48.8962C29.9685 44.1613 39.872 40.3223 52.0888 40.3223Z" fill="white"/>
<path d="M130.286 37.9675L154.78 47.6467L130.307 57.3168L130.286 37.9675Z" fill="#621B1C"/>
<path d="M103.187 48.6869L130.285 37.9678L130.307 57.3171L127.649 58.3563L103.187 48.6869Z" fill="#9A2928"/>
</g>
<defs>
<clipPath id="clip0_120_955">
<rect width="180" height="180" fill="white"/>
</clipPath>
</defs>
</svg>
