<svg width="180" height="180" viewBox="0 0 180 180" fill="none" xmlns="http://www.w3.org/2000/svg">
<g clip-path="url(#clip0_20_79)">
<path d="M89.8381 179.676C139.454 179.676 179.676 139.454 179.676 89.8381C179.676 40.2219 139.454 0 89.8381 0C40.2219 0 0 40.2219 0 89.8381C0 139.454 40.2219 179.676 89.8381 179.676Z" fill="white"/>
<path d="M51.9242 57.6339C51.4935 57.7268 51.1449 57.9531 50.8455 58.3603C50.5369 58.8022 50.4275 59.5298 50.586 60.0099C50.7199 60.43 51.4506 61.2812 52.2518 61.8599C51.4547 62.8998 49.9221 64.9938 49.1814 66.0672C43.7977 73.8661 40.6413 81.0011 40.2405 86.1454C40.0238 88.9264 40.564 90.8708 41.8441 92.3824C42.791 93.4965 43.8993 94.1298 45.6848 94.5095C47.1496 94.821 49.3916 94.8064 51.654 94.4611C50.2316 96.5012 48.2005 99.6295 47.1536 101.41C45.4251 104.368 43.6548 108.148 42.9894 110.311C41.8178 114.081 41.6675 117.178 42.448 120.132C42.9247 121.947 43.6932 123.404 44.7376 124.522C45.801 125.662 47.1532 126.457 48.8065 126.906C51.5152 127.638 55.4913 127.43 60.5126 126.248C61.5705 126.001 63.1947 125.548 64.4059 125.189C63.3259 128.966 63.4464 132.416 64.6584 134.891C65.0504 135.687 66.1456 137.029 66.8008 137.523C70.717 140.446 78.9505 140.337 89.9989 136.872C90.8836 136.596 93.3814 135.732 94.6257 135.28C95.4758 136.416 96.2684 136.863 98.1059 137.084C99.3016 137.214 100.283 137.022 101.212 136.487C101.636 136.241 101.886 135.999 102.029 135.773C102.26 135.406 102.303 135.027 102.143 134.575C101.989 134.151 101.767 133.898 101.37 133.72C101.141 133.617 100.806 133.543 100.263 133.502C99.8387 133.474 99.6892 133.457 99.4634 133.297L99.5336 133.238C101.468 132.42 105.644 130.334 108.221 128.897C117.646 123.64 127.717 116.229 134.424 109.613C140.502 103.624 146.392 96.1505 147.608 92.9489C147.977 91.9891 148.078 90.9916 147.922 90.2152C147.791 89.6086 147.718 89.4436 147.133 88.746C146.514 88.0084 146.384 87.9391 145.813 87.713C143.913 86.9654 140.977 87.7892 135.192 91.3225C127.792 95.841 116.809 104.231 109.071 111.288C101.448 118.232 96.4412 124.301 94.5842 128.753C94.3608 129.29 94.3673 129.54 94.2508 129.603C94.1317 129.67 93.1019 130.071 91.97 130.516C85.7311 132.938 80.295 134.327 76.2341 134.505C75.1142 134.556 73.326 134.435 72.4425 134.245C71.7018 134.087 70.7916 133.728 70.447 133.4C70.0176 133.001 69.8493 132.331 69.82 131.487C69.783 130.423 69.9973 129.095 70.4466 127.551C70.7534 126.507 71.8323 123.81 72.3704 122.762L73.6337 122.081C80.4395 119.507 88.1416 115.78 95.3552 111.572C105.099 105.887 116.313 98.0049 126.355 89.763C132.338 84.8515 135.555 81.7544 138.605 77.9859C140.986 75.0441 142.915 71.7306 143.354 69.8838C143.672 68.5718 143.63 67.3963 143.282 66.4053C142.916 65.3609 142.213 64.5055 141.183 63.9011C138.498 62.328 133.634 62.9481 127.06 65.9125C120.843 68.716 113.07 73.5478 104.29 80.1708C99.0438 84.1182 91.6988 90.2278 87.8172 93.8641C77.9114 103.155 71.1256 111.236 67.3622 118.192L67.1071 118.667C63.7778 119.92 58.6365 121.373 56.0614 121.811C53.9145 122.17 51.843 122.266 50.6256 122.026C49.8725 121.88 49.299 121.64 48.8782 121.208C48.4413 120.759 48.1758 120.122 47.9815 119.273C47.6849 117.944 47.7732 115.759 48.1694 114.141C49.3943 109.154 53.4334 101.992 59.5986 93.776L60.9364 91.9986L62.3171 91.4645C71.4524 87.9568 82.794 81.6464 92.8527 74.4655C98.428 70.4823 104.422 65.5382 108.496 61.5556C111.732 58.3925 114.319 55.4773 116.318 52.7516C118.078 50.3397 119.186 48.3027 119.684 46.5728C120.24 44.6443 120.066 43.0621 119.268 41.7246C118.658 40.7026 117.732 40.0156 116.558 39.6952C115.485 39.4023 114.189 39.4229 112.736 39.8117C108.52 40.9533 102.236 44.725 93.2548 51.5715C91.0213 53.2831 83.6555 59.4635 81.456 61.4719C72.2801 69.8862 64.151 78.4842 57.2652 87.0455L55.9638 88.6665L55.2336 88.8832C53.1138 89.5084 50.6799 89.9699 48.9566 90.0739C47.9482 90.1342 46.6134 89.9939 46.0324 89.7297C45.7254 89.5939 45.6766 89.557 45.4975 89.3134C45.1826 88.8791 45.1086 88.463 45.0834 87.6317C44.9537 84.0002 47.4687 77.8579 51.6436 71.3455C53.2352 68.8658 55.0678 66.323 57.0189 63.8837L57.9627 62.703C60.9556 61.7748 63.9255 59.8898 68.3976 56.1373C73.534 51.8164 78.5559 46.3774 79.9508 44.5043C81.58 42.3165 82.2036 40.1414 81.9319 39.2841C81.7479 38.7362 81.3894 38.2807 80.9427 37.9726C80.4747 37.6499 79.9164 37.4927 79.3814 37.5488C78.5928 37.629 76.7855 38.5949 74.3834 40.3414C72.6832 41.5722 67.9647 45.4654 65.8987 47.3403C62.1313 50.7514 59.6452 53.2505 56.5391 56.7365L55.5584 57.8336C54.714 58.0099 53.9257 57.9401 53.2413 57.7373C52.6937 57.5787 52.2702 57.5593 51.9242 57.6339ZM89.4459 62.2722C92.0596 60.0037 93.1614 59.0901 96.7506 56.1967C101.086 52.7089 105.855 49.3996 109.352 47.4499C111.065 46.4922 112.669 45.7351 113.919 45.4848C113.631 46.0892 113.187 46.8487 112.709 47.5717C110.381 51.0617 106.838 55.0319 101.523 60.1109C99.9191 61.6498 91.9128 68.3565 89.9155 69.8501C83.1824 74.8666 76.9728 78.8648 70.5888 82.2785C69.7757 82.7118 68.803 83.2134 67.8657 83.6867C74.4853 76.1988 81.9641 68.777 89.4459 62.2722ZM122.888 74.8957C129.634 70.8198 135.394 68.435 138.125 68.3061C138.063 68.5362 137.966 68.8196 137.858 69.0703C136.793 71.59 133.798 75.2606 129.526 79.3507C127.767 81.0303 120.898 86.7606 117.697 89.2207C102.37 100.968 89.789 108.881 77.556 114.427C79.6997 111.528 82.7113 107.961 85.5599 104.972C90.9116 99.3532 97.474 93.4067 104.034 88.2356C111.329 82.4797 117.16 78.3592 122.888 74.8957ZM126.959 104.397C131.967 100.478 136.444 97.339 139.749 95.4084C139.435 95.8314 139.112 96.2557 138.807 96.642C133.533 103.326 127.229 109.32 119.357 115.112C114.738 118.508 109.953 121.609 105.301 124.209C107.98 121.127 111.372 117.754 115.991 113.568C117.194 112.472 125.365 105.638 126.959 104.397Z" fill="#1B1A22"/>
<path d="M89.9137 119.241C106.049 119.241 119.129 106.136 119.129 89.9698C119.129 73.8036 106.049 60.6982 89.9137 60.6982C73.7785 60.6982 60.6983 73.8036 60.6983 89.9698C60.6983 106.136 73.7785 119.241 89.9137 119.241Z" fill="url(#paint0_radial_20_79)"/>
<path d="M145.813 87.7418C146.384 87.9679 146.514 88.0371 147.133 88.7747C147.718 89.4723 147.791 89.6373 147.922 90.244C148.078 91.0205 147.977 92.0179 147.608 92.9777C146.392 96.1792 140.502 103.653 134.424 109.642C127.717 116.258 117.646 123.668 108.221 128.926C105.644 130.363 101.468 132.449 99.5337 133.267L99.4633 133.326L94.6257 135.309C94.1388 135.486 93.46 135.726 92.7609 135.969L92.2938 136.131C91.3611 136.453 90.4604 136.757 89.9988 136.901C78.9506 140.366 70.7171 140.475 66.8008 137.551L70.4469 133.429C70.7917 133.756 71.7018 134.116 72.4425 134.273C73.326 134.464 75.1143 134.585 76.234 134.534C80.295 134.356 85.7311 132.967 91.97 130.545C93.1018 130.1 94.1317 129.699 94.2508 129.632L105.301 124.238C109.953 121.637 114.738 118.537 119.357 115.14C127.229 109.349 133.533 103.355 138.807 96.6708C139.112 96.2845 139.435 95.8601 139.749 95.4371L145.813 87.7418ZM141.183 63.9298C142.213 64.5342 142.916 65.3898 143.282 66.4342C143.63 67.4251 143.672 68.6005 143.354 69.9126C142.915 71.7593 140.986 75.0729 138.605 78.0146C135.555 81.7832 132.338 84.8803 126.355 89.7918C116.313 98.0338 105.099 105.916 95.3552 111.601C88.1416 115.809 80.4395 119.536 73.6336 122.11L72.3704 122.791L64.4059 125.217C63.1946 125.577 61.5705 126.03 60.5125 126.276C55.4913 127.459 51.5152 127.667 48.8064 126.934C47.1531 126.486 45.8009 125.69 44.7375 124.551C43.6933 123.433 42.9247 121.976 42.448 120.161L47.9815 119.302C48.1758 120.151 48.4412 120.787 48.8782 121.237C49.299 121.669 49.8724 121.909 50.6256 122.055C51.843 122.295 53.9145 122.199 56.0615 121.84C58.6365 121.402 63.7778 119.949 67.1071 118.696L77.5559 114.456C89.7891 108.91 102.37 100.997 117.697 89.2495C120.898 86.7893 127.767 81.0591 129.526 79.3795C133.798 75.2894 136.793 71.6188 137.858 69.0991C137.966 68.8484 138.063 68.5649 138.126 68.3349L141.183 63.9298ZM116.559 39.724C117.711 40.0218 118.658 40.7313 119.268 41.7534C120.066 43.0909 120.24 44.6731 119.684 46.6017C119.186 48.3315 118.078 50.3684 116.318 52.7803C114.319 55.5061 111.732 58.4213 108.496 61.5844C104.422 65.5669 98.428 70.5111 92.8527 74.4943C82.794 81.6752 71.4524 87.9856 62.317 91.4933L60.9363 92.0273L56.0719 93.4964L51.654 94.4899C49.3916 94.8352 47.1495 94.8498 45.6848 94.5384C43.8993 94.1586 42.7909 93.5252 41.844 92.4111C40.564 90.8995 40.0238 88.9551 40.2405 86.1742L45.0834 87.6604C45.1086 88.4918 45.1826 88.9079 45.4975 89.3422C45.6766 89.5858 45.7253 89.6227 46.0323 89.7585C46.6134 90.0226 47.9482 90.1629 48.9565 90.1026C49.6309 90.0619 50.7387 89.8708 51.8373 89.6532L52.2026 89.5798C53.6576 89.2838 55.0091 88.9653 55.2084 88.918L55.2336 88.912L67.8657 83.7155L67.8938 83.7011C68.1329 83.579 69.8337 82.7097 70.5887 82.3072C76.9728 78.8935 83.1824 74.8953 89.9154 69.8789C91.9128 68.3853 99.919 61.6785 101.523 60.1396C106.838 55.0608 110.381 51.0905 112.709 47.6005C113.187 46.8775 113.474 46.128 113.919 45.5135L116.559 39.724Z" fill="#1B1A22"/>
</g>
<defs>
<radialGradient id="paint0_radial_20_79" cx="0" cy="0" r="1" gradientTransform="matrix(2163.86 3045.16 -3056.88 2163.86 -430.614 2769.66)" gradientUnits="userSpaceOnUse">
<stop stop-color="white" stop-opacity="0.904382"/>
<stop offset="1" stop-color="#FF6D6D"/>
</radialGradient>
<clipPath id="clip0_20_79">
<rect width="180" height="180" fill="white"/>
</clipPath>
</defs>
</svg>
