<svg width="180" height="110" viewBox="0 0 180 110" fill="none" xmlns="http://www.w3.org/2000/svg">
<mask id="mask0_20_2" style="mask-type:luminance" maskUnits="userSpaceOnUse" x="0" y="0" width="180" height="108">
<path d="M0 0H180V108H0V0Z" fill="white"/>
</mask>
<g mask="url(#mask0_20_2)">
<path fill-rule="evenodd" clip-rule="evenodd" d="M90 0C66 0 51 12 45 36C54 24 64.5 19.5 76.5 22.5C83.3467 24.21 88.24 29.18 93.6567 34.6767C102.48 43.6333 112.693 54 135 54C159 54 174 42 180 18C171 30 160.5 34.5 148.5 31.5C141.653 29.79 136.76 24.82 131.343 19.3233C122.52 10.3667 112.307 0 90 0ZM45 54C21 54 6 66 0 90C9 78 19.5 73.5 31.5 76.5C38.3467 78.2133 43.24 83.18 48.6567 88.6767C57.48 97.6333 67.6933 108 90 108C114 108 129 96 135 72C126 84 115.5 88.5 103.5 85.5C96.6533 83.79 91.76 78.82 86.3433 73.3233C77.52 64.3667 67.3067 54 45 54Z" fill="#38BDF8"/>
</g>
</svg>
