<svg width="160" height="160" viewBox="0 0 160 160" fill="none" xmlns="http://www.w3.org/2000/svg">
<g clip-path="url(#clip0_1_49)">
<path d="M15.632 0H144.384C153.008 0 160.016 6.992 160.016 15.632V144.384C160.016 153.008 153.024 160.016 144.384 160.016H15.632C6.992 160 0 153.008 0 144.368V15.632C0 6.992 6.992 0 15.632 0Z" fill="#3178C6"/>
<path fill-rule="evenodd" clip-rule="evenodd" d="M99.056 127.184V142.816C101.584 144.128 104.688 145.104 108.112 145.76C111.536 146.416 115.296 146.736 119.056 146.736C122.816 146.736 126.24 146.4 129.68 145.68C133.12 144.96 135.936 143.776 138.432 142.24C140.96 140.576 143.12 138.496 144.368 135.68C145.616 132.864 146.592 129.744 146.592 125.68C146.592 122.832 146.16 120.368 145.312 118.176C144.464 115.984 143.248 114.112 141.568 112.544C139.968 110.88 138.128 109.424 135.936 108.176C133.744 106.928 131.248 105.616 128.432 104.432C126.368 103.584 124.688 102.768 122.8 101.968C121.168 101.152 119.776 100.336 118.736 99.536C117.584 98.688 116.704 97.824 116.08 96.912C115.456 95.968 115.136 94.944 115.136 93.792C115.136 92.736 115.408 91.76 115.984 90.88C116.544 90 117.328 89.28 118.32 88.656C119.328 88.032 120.576 87.568 122.064 87.216C123.536 86.88 125.152 86.72 127.072 86.72C128.384 86.72 129.76 86.816 131.136 87.008C132.576 87.2 134.048 87.504 135.504 87.92C136.976 88.32 138.416 88.832 139.872 89.456C141.248 90.08 142.528 90.8 143.616 91.616V76.928C141.248 76.016 138.608 75.328 135.808 74.896C132.992 74.464 129.872 74.24 126.128 74.24C122.384 74.24 118.944 74.64 115.504 75.424C112.064 76.208 109.248 77.456 106.752 79.168C104.224 80.848 102.384 82.912 100.816 85.728C99.344 88.352 98.624 91.36 98.624 95.104C98.624 99.792 99.968 103.856 102.688 106.976C105.376 110.416 109.568 112.912 114.88 115.408C117.04 116.288 118.944 117.152 120.816 118C122.688 118.848 124.256 119.712 125.504 120.624C126.848 121.536 127.904 122.528 128.624 123.6C129.408 124.656 129.808 125.92 129.808 127.344C129.808 128.352 129.568 129.28 129.088 130.16C128.608 131.04 127.872 131.792 126.864 132.416C125.856 133.04 124.64 133.536 123.12 133.92C121.648 134.256 120 134.448 117.808 134.448C114.368 134.448 110.928 133.856 107.808 132.672C104.368 131.488 101.248 129.696 98.432 127.36L99.056 127.184ZM72.816 88.752H92.816V75.936H36.88V88.752H56.88V145.936H72.816V88.752Z" fill="white"/>
</g>
<defs>
<clipPath id="clip0_1_49">
<rect width="160" height="160" fill="white"/>
</clipPath>
</defs>
</svg>
