<svg width="160" height="158" viewBox="0 0 160 158" fill="none" xmlns="http://www.w3.org/2000/svg">
<path d="M155.957 23.2794L84.1533 151.956C82.6708 154.612 78.862 154.628 77.3572 151.984L4.12942 23.2918C2.49007 20.4108 4.94834 16.9211 8.20606 17.5046L80.087 30.3807C80.5455 30.4629 81.015 30.4621 81.4735 30.3784L151.851 17.5231C155.098 16.93 157.568 20.3927 155.957 23.2794Z" fill="url(#paint0_linear_4_2)"/>
<path d="M114.328 0.615731L61.1906 11.0503C60.3173 11.2218 59.6706 11.9635 59.618 12.8537L56.3493 68.1786C56.2724 69.4817 57.4665 70.493 58.7356 70.1997L73.5298 66.7781C74.914 66.4582 76.1647 67.6799 75.8802 69.0749L71.4849 90.6447C71.1891 92.0964 72.5491 93.3377 73.9637 92.9071L83.1013 90.1249C84.5179 89.6939 85.879 90.9388 85.5793 92.3917L78.5944 126.273C78.1573 128.392 80.9702 129.548 82.1432 127.731L82.9268 126.517L126.226 39.9192C126.951 38.4693 125.701 36.816 124.112 37.1233L108.884 40.0686C107.453 40.3451 106.235 39.0096 106.639 37.6065L116.578 3.07666C116.982 1.67118 115.76 0.334452 114.328 0.615731Z" fill="url(#paint1_linear_4_2)"/>
<defs>
<linearGradient id="paint0_linear_4_2" x1="2.34151" y1="12.9059" x2="91.9582" y2="134.35" gradientUnits="userSpaceOnUse">
<stop stop-color="#41D1FF"/>
<stop offset="1" stop-color="#BD34FE"/>
</linearGradient>
<linearGradient id="paint1_linear_4_2" x1="75.9614" y1="3.4487" x2="92.1959" y2="114.575" gradientUnits="userSpaceOnUse">
<stop stop-color="#FFEA83"/>
<stop offset="0.0833333" stop-color="#FFDD35"/>
<stop offset="1" stop-color="#FFA800"/>
</linearGradient>
</defs>
</svg>
